<?xml version="1.0" encoding="UTF-8"?>
<svg xmlns="http://www.w3.org/2000/svg" xmlns:xlink="http://www.w3.org/1999/xlink" width="80px" height="80px" viewBox="0 0 80 64" version="1.1">
<g id="surface1">
<path style=" stroke:none;fill-rule:nonzero;fill:rgb(0%,0%,0%);fill-opacity:1;" d="M 12.507812 0.0078125 L 67.492188 0.0078125 C 70.914062 0.0078125 74.03125 1.414062 76.296875 3.652344 C 78.582031 5.90625 80 9.011719 80 12.378906 L 80 51.621094 C 80 54.980469 78.566406 58.082031 76.285156 60.328125 C 74.007812 62.578125 70.882812 63.992188 67.492188 63.992188 L 12.507812 63.992188 C 9.113281 63.992188 5.972656 62.59375 3.691406 60.339844 C 1.425781 58.101562 0 55.015625 0 51.621094 L 0 12.378906 C 0 8.976562 1.410156 5.882812 3.683594 3.640625 C 5.953125 1.398438 9.078125 0.0078125 12.507812 0.0078125 Z M 51.0625 42.960938 L 42.429688 42.960938 L 42.429688 20.820312 L 50.972656 20.820312 C 53.28125 20.820312 55.277344 21.261719 56.960938 22.144531 C 58.640625 23.027344 59.941406 24.296875 60.855469 25.949219 C 61.773438 27.605469 62.234375 29.585938 62.234375 31.890625 C 62.234375 34.199219 61.777344 36.179688 60.863281 37.832031 C 59.953125 39.484375 58.65625 40.753906 56.988281 41.636719 C 55.316406 42.519531 53.335938 42.960938 51.0625 42.960938 Z M 24.339844 42.960938 L 17.765625 42.960938 L 25.171875 20.820312 L 33.492188 20.820312 L 40.894531 42.960938 L 34.328125 42.960938 L 33.03125 38.722656 L 25.632812 38.722656 Z M 31.652344 34.226562 L 29.417969 26.917969 L 29.242188 26.917969 L 27.011719 34.226562 Z M 48.519531 37.855469 L 50.84375 37.855469 C 51.957031 37.855469 52.902344 37.683594 53.6875 37.328125 C 54.46875 36.972656 55.070312 36.367188 55.480469 35.503906 C 55.890625 34.636719 56.097656 33.433594 56.097656 31.890625 C 56.097656 30.347656 55.890625 29.148438 55.472656 28.285156 C 55.050781 27.417969 54.4375 26.808594 53.628906 26.453125 C 52.824219 26.101562 51.835938 25.925781 50.671875 25.925781 L 48.519531 25.925781 Z M 67.492188 5.148438 L 12.507812 5.148438 C 10.476562 5.148438 8.636719 5.964844 7.308594 7.273438 C 5.980469 8.585938 5.15625 10.394531 5.15625 12.378906 L 5.15625 51.621094 C 5.15625 53.59375 5.988281 55.394531 7.316406 56.707031 C 8.65625 58.027344 10.503906 58.851562 12.507812 58.851562 L 67.492188 58.851562 C 69.484375 58.851562 71.320312 58.019531 72.664062 56.695312 C 74 55.375 74.84375 53.566406 74.84375 51.621094 L 74.84375 12.378906 C 74.84375 10.421875 74.011719 8.605469 72.671875 7.285156 C 71.34375 5.972656 69.511719 5.148438 67.492188 5.148438 Z M 67.492188 5.148438 "/>
</g>
</svg>
