<?xml version="1.0" encoding="UTF-8"?>
<svg xmlns="http://www.w3.org/2000/svg" xmlns:xlink="http://www.w3.org/1999/xlink" width="80px" height="80px" viewBox="0 0 80 51" version="1.1">
<g id="surface1">
<path style=" stroke:none;fill-rule:evenodd;fill:rgb(0%,0%,0%);fill-opacity:1;" d="M 32.921875 11.25 C 26.515625 6.800781 20.183594 5.816406 13.632812 7.515625 C 15.066406 4.097656 17.21875 1.855469 19.753906 0.800781 C 23.339844 -0.691406 29.210938 0.371094 31.523438 3.5625 C 32.707031 5.191406 33.300781 7.605469 32.921875 11.25 Z M 54.375 35.882812 C 54.199219 35.160156 54.65625 34.4375 55.382812 34.261719 C 56.113281 34.089844 56.84375 34.539062 57.019531 35.265625 C 57.371094 36.730469 57.976562 37.867188 58.78125 38.6875 C 59.609375 39.523438 60.671875 40.058594 61.933594 40.304688 C 62.667969 40.445312 63.144531 41.152344 63 41.882812 C 62.859375 42.613281 62.148438 43.082031 61.414062 42.941406 C 59.617188 42.585938 58.074219 41.804688 56.855469 40.570312 C 55.691406 39.394531 54.84375 37.84375 54.375 35.882812 Z M 8.816406 35.882812 C 8.640625 35.160156 9.09375 34.4375 9.824219 34.261719 C 10.554688 34.089844 11.28125 34.539062 11.457031 35.265625 C 11.808594 36.730469 12.414062 37.867188 13.222656 38.6875 C 14.050781 39.523438 15.109375 40.058594 16.375 40.304688 C 17.109375 40.445312 17.585938 41.152344 17.441406 41.882812 C 17.296875 42.613281 16.589844 43.082031 15.851562 42.941406 C 14.054688 42.585938 12.511719 41.804688 11.296875 40.570312 C 10.128906 39.394531 9.285156 37.84375 8.816406 35.882812 Z M 39.910156 30.96875 C 41.730469 30.96875 43.210938 32.394531 43.210938 34.152344 C 43.210938 35.910156 41.730469 37.339844 39.910156 37.339844 C 38.085938 37.339844 36.609375 35.910156 36.609375 34.152344 C 36.609375 32.394531 38.085938 30.96875 39.910156 30.96875 Z M 17.355469 22.476562 C 23.867188 22.476562 29.148438 27.566406 29.148438 33.855469 C 29.148438 40.136719 23.867188 45.234375 17.355469 45.234375 C 10.847656 45.234375 5.566406 40.144531 5.566406 33.855469 C 5.566406 27.566406 10.839844 22.476562 17.355469 22.476562 Z M 62.917969 22.476562 C 69.425781 22.476562 74.707031 27.566406 74.707031 33.855469 C 74.707031 40.136719 69.425781 45.234375 62.917969 45.234375 C 56.40625 45.234375 51.125 40.144531 51.125 33.855469 C 51.125 27.566406 56.398438 22.476562 62.917969 22.476562 Z M 47.078125 11.25 C 53.484375 6.800781 59.816406 5.816406 66.359375 7.515625 C 64.929688 4.097656 62.773438 1.855469 60.242188 0.800781 C 56.652344 -0.691406 50.78125 0.371094 48.476562 3.5625 C 47.292969 5.191406 46.699219 7.605469 47.078125 11.25 Z M 70.03125 11.378906 C 67.804688 9.105469 64.199219 8.078125 59.207031 8.296875 C 53.546875 8.574219 47.570312 10.921875 45.652344 16.238281 C 44.042969 12.738281 35.957031 12.738281 34.355469 16.238281 C 32.433594 10.921875 26.457031 8.570312 20.800781 8.296875 C 15.808594 8.078125 12.207031 9.113281 9.972656 11.378906 C 6.835938 15.554688 0.625 26.460938 0.105469 31.792969 C -2.019531 53.429688 29.246094 58.855469 34.257812 36.519531 C 37.101562 41.527344 42.898438 41.527344 45.742188 36.519531 C 50.753906 58.863281 82.019531 53.429688 79.894531 31.792969 C 79.375 26.460938 73.164062 15.554688 70.03125 11.378906 Z M 70.03125 11.378906 "/>
</g>
</svg>
