<?xml version="1.0" encoding="UTF-8"?>
<svg xmlns="http://www.w3.org/2000/svg" xmlns:xlink="http://www.w3.org/1999/xlink" width="80px" height="80px" viewBox="0 0 80 80" version="1.1">
<g id="surface1">
<path style=" stroke:none;fill-rule:evenodd;fill:rgb(0%,0%,0%);fill-opacity:1;" d="M 68.492188 3.90625 L 77.839844 13.175781 C 79.09375 14.421875 79.09375 16.460938 77.839844 17.710938 L 70.671875 24.820312 L 56.753906 11.023438 L 63.929688 3.90625 C 65.183594 2.664062 67.238281 2.664062 68.492188 3.90625 Z M 20.152344 10.894531 L 35.292969 32.304688 L 54.03125 13.71875 L 67.941406 27.523438 L 46.773438 48.527344 L 56.671875 62.515625 L 49.851562 67.410156 L 39.429688 55.816406 L 24.15625 70.96875 C 22.898438 72.210938 20.847656 72.210938 19.59375 70.96875 L 10.238281 61.695312 C 8.984375 60.453125 8.984375 58.414062 10.238281 57.164062 L 26.304688 41.226562 L 4 16.425781 C -6.082031 5.082031 4.636719 -11.042969 20.152344 10.894531 Z M 5.886719 61.144531 L 19.859375 74.996094 L 3.988281 77.59375 Z M 54.96875 67.351562 C 60.472656 63.316406 64.347656 63.722656 66.523438 68.351562 C 67.039062 69.445312 68.605469 74.140625 71.828125 76.707031 C 74.992188 79.226562 79.9375 79.574219 79.9375 79.730469 C 72.191406 80.445312 40.382812 80.703125 54.96875 67.351562 Z M 54.96875 67.351562 "/>
</g>
</svg>
