<?xml version="1.0" encoding="UTF-8"?>
<svg xmlns="http://www.w3.org/2000/svg" xmlns:xlink="http://www.w3.org/1999/xlink" width="80px" height="80px" viewBox="0 0 80 77" version="1.1">
<g id="surface1">
<path style=" stroke:none;fill-rule:evenodd;fill:rgb(0%,0%,0%);fill-opacity:1;" d="M 4.277344 2.917969 L 36.878906 2.917969 C 38.015625 2.917969 39.046875 3.382812 39.800781 4.121094 C 40.542969 4.863281 41.011719 5.898438 41.011719 7.027344 L 41.011719 35.007812 L 39.117188 34.195312 L 39.117188 7.027344 C 39.117188 6.417969 38.863281 5.859375 38.464844 5.457031 C 38.054688 5.050781 37.496094 4.808594 36.878906 4.808594 L 4.277344 4.808594 C 3.6875 4.808594 3.144531 5.039062 2.734375 5.417969 L 2.703125 5.457031 C 2.300781 5.859375 2.046875 6.417969 2.046875 7.027344 L 2.046875 58.777344 C 2.046875 59.386719 2.300781 59.945312 2.703125 60.347656 C 3.105469 60.746094 3.667969 61 4.277344 61 L 14.128906 61 L 14.128906 62.882812 L 4.277344 62.882812 C 3.148438 62.882812 2.113281 62.417969 1.367188 61.675781 C 0.621094 60.941406 0.152344 59.910156 0.152344 58.777344 L 0.152344 7.027344 C 0.152344 5.898438 0.621094 4.871094 1.367188 4.128906 L 1.425781 4.078125 C 2.164062 3.363281 3.175781 2.917969 4.277344 2.917969 Z M 24.246094 49.460938 L 38.027344 55.042969 C 38.464844 55.21875 39.1875 55.332031 39.625 55.152344 L 54.214844 49.222656 C 54.652344 49.042969 54.210938 48.253906 53.761719 48.101562 L 39.054688 42.972656 C 38.941406 42.933594 36.179688 43.933594 35.789062 44.066406 L 23.792969 48.332031 C 23.332031 48.507812 23.648438 49.21875 24.246094 49.460938 Z M 54.988281 69.097656 L 40.589844 76.863281 C 40.175781 77.089844 39.597656 77.058594 39.597656 76.585938 L 39.597656 58.300781 C 39.597656 57.832031 39.636719 57.371094 40.070312 57.183594 L 54.519531 51.0625 C 54.957031 50.882812 55.558594 51.042969 55.550781 51.515625 L 55.453125 67.980469 C 55.460938 68.449219 55.402344 68.871094 54.988281 69.097656 Z M 51.6875 62.65625 C 52.667969 63.070312 52.953125 64.535156 52.324219 65.921875 C 51.695312 67.308594 50.382812 68.089844 49.402344 67.675781 C 48.425781 67.265625 48.140625 65.804688 48.769531 64.410156 C 49.398438 63.03125 50.707031 62.242188 51.6875 62.65625 Z M 46.460938 58.835938 C 47.472656 59.269531 47.769531 60.777344 47.113281 62.210938 C 46.464844 63.644531 45.109375 64.464844 44.09375 64.03125 C 43.074219 63.597656 42.78125 62.089844 43.4375 60.65625 C 44.09375 59.21875 45.441406 58.40625 46.460938 58.835938 Z M 22.96875 68.972656 L 37.238281 76.65625 C 37.652344 76.882812 38.230469 76.851562 38.230469 76.378906 L 38.230469 58.269531 C 38.230469 57.796875 38.191406 57.339844 37.757812 57.152344 L 23.5 51.070312 C 23.066406 50.882812 22.46875 51.050781 22.46875 51.519531 L 22.503906 67.863281 C 22.496094 68.328125 22.554688 68.746094 22.96875 68.972656 Z M 24.390625 63.949219 C 25.285156 63.386719 26.613281 64.03125 27.351562 65.386719 C 28.097656 66.746094 27.976562 68.308594 27.082031 68.875 C 26.1875 69.445312 24.855469 68.800781 24.109375 67.4375 C 23.378906 66.070312 23.496094 64.507812 24.390625 63.949219 Z M 28.605469 60.796875 C 29.550781 60.222656 30.960938 60.875 31.742188 62.257812 C 32.535156 63.632812 32.40625 65.210938 31.457031 65.78125 C 30.511719 66.347656 29.105469 65.695312 28.320312 64.320312 C 27.527344 62.945312 27.65625 61.371094 28.605469 60.796875 Z M 33.074219 57.476562 C 34.027344 56.902344 35.441406 57.554688 36.238281 58.933594 C 37.03125 60.308594 36.90625 61.890625 35.953125 62.464844 C 35 63.039062 33.585938 62.386719 32.789062 61.003906 C 31.992188 59.625 32.121094 58.050781 33.074219 57.476562 Z M 38.929688 47.261719 C 40.609375 47.261719 41.972656 47.90625 41.972656 48.707031 C 41.972656 49.507812 40.609375 50.152344 38.929688 50.152344 C 37.25 50.152344 35.886719 49.507812 35.886719 48.707031 C 35.886719 47.90625 37.25 47.261719 38.929688 47.261719 Z M 76.785156 8.136719 L 46.257812 0 L 46.296875 1.960938 L 48.359375 2.515625 L 70.390625 40.472656 L 68.316406 48.171875 L 46.460938 10.511719 L 46.539062 14.402344 L 67.628906 50.734375 L 65.558594 58.429688 L 62.121094 52.507812 L 62.101562 56.230469 L 64.574219 60.488281 C 64.664062 60.632812 64.773438 60.753906 64.910156 60.824219 L 64.417969 62.664062 C 64.261719 63.25 63.867188 63.726562 63.375 64.003906 C 62.984375 64.230469 62.519531 64.339844 62.042969 64.296875 L 62.03125 66.179688 C 62.84375 66.226562 63.640625 66.023438 64.3125 65.632812 C 65.230469 65.101562 65.941406 64.230469 66.242188 63.140625 L 79.703125 13.15625 C 80.003906 12.066406 79.816406 10.949219 79.289062 10.039062 C 78.757812 9.144531 77.882812 8.433594 76.785156 8.136719 Z M 55.578125 41.242188 L 46.769531 26.066406 L 46.847656 29.964844 L 52.671875 40.003906 Z M 69.003906 8.011719 L 75.929688 19.945312 L 73.855469 27.632812 L 61.265625 5.941406 Z M 76.609375 17.363281 L 71.570312 8.691406 L 76.285156 9.949219 C 76.875 10.105469 77.351562 10.496094 77.636719 10.988281 C 77.921875 11.484375 78.019531 12.085938 77.863281 12.679688 Z M 58.683594 5.265625 L 73.160156 30.207031 L 71.085938 37.90625 L 50.949219 3.195312 Z M 4.886719 11.929688 L 5.261719 11.871094 L 6.867188 7.324219 L 7.949219 7.324219 L 9.539062 11.871094 L 9.90625 11.929688 L 9.90625 12.554688 L 8.117188 12.554688 L 8.117188 11.929688 L 8.480469 11.867188 L 8.246094 11.144531 L 6.546875 11.144531 L 6.3125 11.867188 L 6.675781 11.929688 L 6.675781 12.554688 L 4.886719 12.554688 Z M 6.800781 10.375 L 8.007812 10.375 L 7.417969 8.53125 L 7.390625 8.53125 Z M 23.746094 39.867188 L 21.839844 35.488281 C 25.257812 38.699219 30.480469 36.957031 30.609375 31.9375 C 30.699219 28.332031 27.238281 23.628906 20.445312 17.535156 C 13.695312 23.628906 10.207031 28.304688 10.574219 31.9375 C 11.023438 36.34375 15.476562 38.359375 18.910156 35.488281 L 17.554688 39.867188 Z M 23.746094 39.867188 "/>
</g>
</svg>
