<?xml version="1.0" encoding="UTF-8"?>
<svg xmlns="http://www.w3.org/2000/svg" xmlns:xlink="http://www.w3.org/1999/xlink" width="80px" height="80px" viewBox="0 0 80 52" version="1.1">
<g id="surface1">
<path style=" stroke:none;fill-rule:evenodd;fill:rgb(0%,0%,0%);fill-opacity:1;" d="M 0 13.953125 L 7.832031 18.164062 L 15.324219 4.238281 L 7.492188 0.03125 Z M 65.675781 35.386719 C 66.855469 35.386719 67.898438 34.820312 68.546875 33.941406 C 69.199219 34.8125 70.242188 35.386719 71.417969 35.386719 C 73.398438 35.386719 75 33.785156 75 31.808594 C 75 29.828125 73.398438 28.226562 71.417969 28.226562 C 70.242188 28.226562 69.199219 28.792969 68.546875 29.671875 C 67.898438 28.792969 66.855469 28.226562 65.675781 28.226562 C 63.699219 28.226562 62.097656 29.828125 62.097656 31.808594 C 62.097656 33.785156 63.699219 35.386719 65.675781 35.386719 Z M 34.640625 46.925781 L 78.152344 46.925781 L 78.152344 49.300781 C 78.152344 49.53125 78.058594 49.738281 77.910156 49.882812 L 77.902344 49.886719 C 77.753906 50.039062 77.550781 50.128906 77.324219 50.128906 L 35.460938 50.128906 C 35.234375 50.128906 35.027344 50.039062 34.882812 49.886719 L 34.875 49.882812 C 34.726562 49.730469 34.636719 49.53125 34.636719 49.300781 L 34.636719 46.925781 Z M 78.152344 39.855469 L 34.640625 39.855469 L 34.640625 35.144531 C 36.027344 35.71875 37.492188 36.171875 39.042969 36.492188 C 43.691406 37.34375 45.683594 33.777344 42.863281 30.1875 C 41.023438 28.046875 38.347656 26.375 35.066406 25.046875 C 35.183594 24.980469 35.320312 24.941406 35.46875 24.941406 L 77.332031 24.941406 C 77.539062 24.941406 77.734375 25.019531 77.878906 25.152344 C 77.890625 25.164062 77.898438 25.175781 77.910156 25.183594 C 78.058594 25.332031 78.152344 25.542969 78.152344 25.761719 Z M 77.324219 51.96875 L 35.460938 51.96875 C 34.734375 51.96875 34.0625 51.671875 33.582031 51.1875 C 33.097656 50.703125 32.792969 50.039062 32.792969 49.300781 L 32.792969 34.285156 C 31.125 33.425781 29.582031 32.386719 28.152344 31.214844 L 21.269531 29.652344 C 18.523438 28.691406 16.425781 27.277344 15.402344 25.125 C 14.851562 23.972656 14.257812 22.9375 13.640625 22 C 12.226562 19.855469 13.371094 21.070312 11.269531 19.777344 L 9.707031 18.8125 C 10.871094 15.652344 15.371094 8.148438 16.992188 5.136719 L 22.332031 6.828125 C 26.992188 8.496094 32.214844 9.691406 37.617188 10.738281 C 40.261719 11.539062 42.023438 12.664062 42.683594 14.199219 L 47.257812 23.089844 L 77.324219 23.089844 C 78.027344 23.089844 78.671875 23.363281 79.148438 23.816406 C 79.167969 23.835938 79.191406 23.855469 79.210938 23.875 C 79.695312 24.355469 79.992188 25.027344 79.992188 25.761719 L 79.992188 49.300781 C 79.992188 50.03125 79.695312 50.703125 79.210938 51.183594 C 78.722656 51.671875 78.058594 51.96875 77.324219 51.96875 Z M 33.398438 24.070312 C 33.457031 24.003906 33.515625 23.941406 33.574219 23.875 C 34.0625 23.386719 34.726562 23.089844 35.460938 23.089844 L 39.1875 23.089844 C 38.644531 22.410156 38.132812 21.730469 37.667969 21.03125 C 36.660156 19.515625 37.121094 19.800781 35.222656 19.53125 C 34.246094 19.386719 33.261719 19.261719 32.285156 19.179688 C 31.589844 19.691406 30.925781 20.207031 30.417969 20.902344 C 31.160156 22.171875 32.199219 23.230469 33.398438 24.070312 Z M 33.398438 24.070312 "/>
</g>
</svg>
