<?xml version="1.0" encoding="UTF-8"?>
<svg xmlns="http://www.w3.org/2000/svg" xmlns:xlink="http://www.w3.org/1999/xlink" width="80px" height="80px" viewBox="0 0 80 70" version="1.1">
<g id="surface1">
<path style=" stroke:none;fill-rule:evenodd;fill:rgb(0%,0%,0%);fill-opacity:1;" d="M 13.757812 54.449219 L 66.003906 54.449219 L 74.167969 31.917969 C 74.589844 32.054688 75.046875 32.125 75.515625 32.125 C 77.988281 32.125 80 30.128906 80 27.65625 C 80 25.191406 77.996094 23.1875 75.515625 23.1875 C 73.039062 23.1875 71.027344 25.183594 71.027344 27.65625 C 71.027344 28.628906 71.339844 29.523438 71.867188 30.257812 L 67.234375 34.058594 C 60.742188 39.378906 56.671875 36.914062 57.941406 28.648438 L 58.660156 23.996094 C 58.90625 24.042969 59.167969 24.0625 59.425781 24.0625 C 61.902344 24.0625 63.914062 22.0625 63.914062 19.589844 C 63.914062 17.125 61.90625 15.121094 59.425781 15.121094 C 56.953125 15.121094 54.941406 17.121094 54.941406 19.589844 C 54.941406 21 55.597656 22.257812 56.621094 23.074219 L 55.507812 24.828125 C 50.050781 32.988281 46.027344 29.863281 44.421875 21.796875 L 41.550781 8.621094 C 43.15625 7.9375 44.289062 6.355469 44.289062 4.5 C 44.289062 2.035156 42.285156 0.03125 39.804688 0.03125 C 37.332031 0.03125 35.320312 2.027344 35.320312 4.5 C 35.320312 6.5625 36.71875 8.296875 38.621094 8.816406 L 36.757812 16.328125 C 35.144531 23.210938 33.210938 36.925781 24.464844 25.234375 L 23.039062 23.300781 C 24.167969 22.492188 24.902344 21.167969 24.902344 19.675781 C 24.902344 17.210938 22.898438 15.207031 20.417969 15.207031 C 17.941406 15.207031 15.929688 17.203125 15.929688 19.675781 C 15.929688 22.140625 17.9375 24.144531 20.417969 24.144531 C 20.761719 24.144531 21.101562 24.105469 21.425781 24.027344 L 21.726562 27.066406 C 22.3125 31.210938 23.058594 36.824219 18.28125 36.558594 C 15.910156 36.425781 15.019531 35.621094 13.210938 34.339844 L 8.039062 30.6875 C 8.621094 29.933594 8.964844 28.992188 8.964844 27.96875 C 8.964844 25.5 6.960938 23.496094 4.480469 23.496094 C 2.003906 23.496094 -0.0078125 25.496094 -0.0078125 27.96875 C -0.0078125 30.4375 2 32.4375 4.480469 32.4375 C 5.066406 32.4375 5.617188 32.328125 6.132812 32.125 Z M 13.71875 60.683594 L 66.132812 60.683594 L 66.132812 69.957031 L 13.71875 69.957031 Z M 13.71875 60.683594 "/>
</g>
</svg>
