<?xml version="1.0" encoding="UTF-8"?>
<svg xmlns="http://www.w3.org/2000/svg" xmlns:xlink="http://www.w3.org/1999/xlink" width="80px" height="80px" viewBox="0 0 80 93" version="1.1">
<g id="surface1">
<path style=" stroke:none;fill-rule:evenodd;fill:rgb(0%,0%,0%);fill-opacity:1;" d="M 39.996094 0.078125 C 61.976562 0.078125 79.792969 8.359375 79.792969 18.558594 C 79.792969 28.765625 61.96875 37.039062 39.996094 37.039062 C 18.023438 37.039062 0.199219 28.757812 0.199219 18.558594 C 0.199219 8.359375 18.023438 0.078125 39.996094 0.078125 Z M 0.199219 61.90625 L 0.199219 76.097656 C 7.277344 101.054688 77.234375 96.234375 79.800781 74.820312 L 79.800781 60.644531 C 76.308594 84.152344 5.792969 85.84375 0.199219 61.90625 Z M 0 24.964844 L 0 38.824219 C 7.082031 63.199219 77.425781 59.902344 80 38.996094 L 80 25.148438 C 76.496094 48.109375 5.597656 48.34375 0 24.964844 Z M 0 42.875 L 0 57.0625 C 7.082031 82.019531 77.425781 78.652344 80 57.238281 L 80 43.0625 C 76.496094 66.570312 5.597656 66.808594 0 42.875 Z M 0 42.875 "/>
</g>
</svg>
