<?xml version="1.0" encoding="UTF-8"?>
<svg xmlns="http://www.w3.org/2000/svg" xmlns:xlink="http://www.w3.org/1999/xlink" width="80px" height="80px" viewBox="0 0 80 88" version="1.1">
<g id="surface1">
<path style=" stroke:none;fill-rule:nonzero;fill:rgb(0%,0%,0%);fill-opacity:1;" d="M 4.765625 33.125 L 6.523438 34.695312 L 6.523438 1.597656 C 6.523438 0.714844 7.242188 0 8.125 0 L 56.238281 0 C 56.714844 0 57.164062 0.210938 57.46875 0.578125 L 72.660156 16.394531 C 72.960938 16.703125 73.109375 17.101562 73.109375 17.5 L 73.113281 34.949219 L 75.304688 33.035156 C 75.761719 32.636719 76.273438 32.457031 76.804688 32.457031 C 77.25 32.457031 77.675781 32.59375 78.066406 32.824219 C 78.355469 33 78.625 33.234375 78.863281 33.503906 C 79.488281 34.21875 79.949219 35.320312 79.949219 36.230469 L 79.949219 83.066406 C 79.988281 83.265625 79.988281 83.46875 79.949219 83.667969 L 79.949219 84.40625 C 79.949219 85.394531 79.542969 86.296875 78.894531 86.945312 C 78.242188 87.59375 77.34375 88 76.351562 88 L 3.617188 88 C 2.628906 88 1.726562 87.59375 1.078125 86.945312 C 0.425781 86.296875 0.0234375 85.394531 0.0234375 84.40625 L 0.0234375 36.230469 C 0.0234375 35.300781 0.5 34.179688 1.132812 33.46875 L 1.246094 33.355469 C 1.460938 33.136719 1.691406 32.945312 1.929688 32.804688 L 2.09375 32.722656 C 2.433594 32.550781 2.796875 32.453125 3.167969 32.453125 C 3.707031 32.453125 4.226562 32.636719 4.6875 33.050781 Z M 54.292969 33.917969 C 54.15625 36.84375 53.425781 39.152344 52.132812 40.84375 C 50.828125 42.535156 49.066406 43.382812 46.839844 43.382812 C 44.714844 43.382812 43.296875 42.480469 42.582031 40.679688 C 41.984375 41.5625 41.285156 42.234375 40.5 42.679688 C 39.707031 43.125 38.878906 43.34375 38.007812 43.34375 C 36.296875 43.34375 35 42.644531 34.113281 41.242188 C 33.230469 39.835938 32.894531 37.960938 33.105469 35.609375 C 33.289062 33.703125 33.757812 31.980469 34.503906 30.453125 C 35.246094 28.917969 36.191406 27.738281 37.328125 26.898438 C 38.476562 26.0625 39.6875 25.644531 40.976562 25.644531 C 41.964844 25.644531 42.832031 25.765625 43.589844 26.007812 C 44.347656 26.253906 45.234375 26.765625 46.253906 27.539062 L 45.34375 37.414062 C 45.121094 39.730469 45.789062 40.886719 47.347656 40.886719 C 48.542969 40.886719 49.527344 40.25 50.292969 38.96875 C 51.058594 37.683594 51.476562 36.03125 51.550781 33.992188 C 51.746094 29.679688 50.914062 26.375 49.046875 24.078125 C 47.171875 21.789062 44.363281 20.644531 40.613281 20.644531 C 38.316406 20.644531 36.277344 21.21875 34.503906 22.363281 C 32.726562 23.511719 31.316406 25.167969 30.269531 27.339844 C 29.226562 29.511719 28.65625 31.980469 28.546875 34.757812 C 28.402344 37.578125 28.746094 40.011719 29.558594 42.050781 C 30.371094 44.09375 31.621094 45.648438 33.300781 46.714844 C 34.988281 47.777344 37.042969 48.308594 39.46875 48.308594 C 40.453125 48.308594 41.484375 48.191406 42.550781 47.957031 C 43.625 47.722656 44.539062 47.410156 45.289062 47.007812 L 45.953125 49.414062 C 45.242188 49.882812 44.28125 50.257812 43.0625 50.542969 C 41.851562 50.828125 40.632812 50.972656 39.402344 50.972656 C 36.417969 50.972656 33.867188 50.34375 31.730469 49.082031 C 29.597656 47.824219 27.996094 46 26.929688 43.613281 C 25.828125 41.144531 25.34375 38.1875 25.46875 34.746094 C 25.613281 31.542969 26.332031 28.660156 27.636719 26.101562 C 28.933594 23.542969 30.714844 21.554688 32.972656 20.140625 C 35.226562 18.722656 37.796875 18.015625 40.679688 18.015625 C 43.601562 18.015625 46.109375 18.660156 48.21875 19.941406 C 50.320312 21.21875 51.898438 23.066406 52.9375 25.46875 C 53.980469 27.875 54.433594 30.695312 54.292969 33.917969 Z M 36.550781 35.617188 C 36.398438 37.207031 36.539062 38.410156 36.96875 39.230469 C 37.410156 40.054688 38.097656 40.464844 39.046875 40.464844 C 39.675781 40.464844 40.277344 40.191406 40.839844 39.632812 C 41.40625 39.082031 41.863281 38.320312 42.210938 37.347656 L 43.003906 28.707031 C 42.414062 28.488281 41.851562 28.378906 41.296875 28.378906 C 39.996094 28.378906 38.933594 28.988281 38.117188 30.207031 C 37.296875 31.429688 36.773438 33.230469 36.550781 35.617188 Z M 57.675781 5.398438 L 57.675781 16.667969 L 68.5 16.667969 Z M 69.914062 19.867188 L 56.074219 19.867188 C 55.191406 19.867188 54.472656 19.148438 54.472656 18.265625 L 54.472656 3.199219 L 9.726562 3.199219 L 9.726562 37.554688 L 39.589844 64.203125 L 69.914062 37.742188 Z M 76.746094 84.0625 L 49.082031 60.152344 L 40.628906 67.527344 C 40.03125 68.050781 39.125 68.058594 38.519531 67.515625 L 30.296875 60.179688 L 3.222656 83.488281 L 3.222656 84.40625 C 3.222656 84.515625 3.269531 84.613281 3.339844 84.683594 C 3.410156 84.757812 3.511719 84.800781 3.617188 84.800781 L 76.351562 84.800781 C 76.570312 84.800781 76.746094 84.625 76.746094 84.40625 Z M 51.507812 58.035156 L 76.746094 79.847656 L 76.746094 36.230469 C 76.746094 36.171875 76.734375 36.105469 76.714844 36.035156 Z M 3.222656 79.28125 L 27.898438 58.039062 L 3.257812 36.046875 C 3.234375 36.113281 3.222656 36.171875 3.222656 36.230469 Z M 3.222656 79.28125 "/>
</g>
</svg>
