<?xml version="1.0" encoding="UTF-8"?>
<svg xmlns="http://www.w3.org/2000/svg" xmlns:xlink="http://www.w3.org/1999/xlink" width="80px" height="80px" viewBox="0 0 80 104" version="1.1">
<g id="surface1">
<path style=" stroke:none;fill-rule:evenodd;fill:rgb(0%,0%,0%);fill-opacity:1;" d="M 0.558594 0 L 11.914062 0 C 12.125 0 12.304688 0.179688 12.304688 0.390625 L 12.304688 37.808594 L 12.550781 37.554688 L 12.621094 37.484375 C 15.328125 34.539062 17.542969 32.1875 20.371094 30.597656 C 23.234375 28.988281 26.675781 28.191406 31.804688 28.414062 L 31.8125 28.414062 C 33.644531 28.4375 35.808594 28.632812 37.589844 28.800781 C 38.414062 28.878906 39.15625 28.945312 39.796875 28.988281 C 48.449219 29.554688 52.503906 34.074219 55.65625 37.59375 C 57.046875 39.152344 58.257812 40.488281 59.550781 41.109375 C 60.164062 41.394531 61.128906 40.988281 62.226562 40.53125 C 62.890625 40.253906 63.589844 39.957031 64.332031 39.761719 C 64.808594 39.585938 65.070312 39.484375 65.277344 39.40625 C 65.539062 39.304688 65.71875 39.238281 65.820312 39.203125 L 73.691406 36.105469 L 73.726562 36.097656 C 74.78125 35.742188 76.007812 35.960938 77.089844 36.597656 C 77.851562 37.046875 78.546875 37.707031 79.050781 38.507812 C 79.554688 39.320312 79.859375 40.285156 79.851562 41.351562 C 79.84375 42.886719 79.160156 44.59375 77.449219 46.289062 C 77.371094 46.363281 77.289062 46.414062 77.195312 46.441406 L 69.304688 49.546875 L 68.574219 49.800781 C 64.347656 51.289062 61.289062 52.363281 55.929688 51.050781 C 55.886719 51.042969 55.855469 51.027344 55.820312 51.011719 C 52.070312 49.5625 50.128906 47.558594 48.238281 45.59375 L 47.957031 45.304688 L 45.5625 60.464844 C 47.699219 61.800781 49.839844 62.792969 51.859375 63.730469 C 57.992188 66.574219 63.035156 68.910156 64.117188 78.484375 C 64.3125 80.199219 64.21875 81.816406 64.125 83.578125 L 64.125 83.601562 C 64.109375 83.855469 64.101562 84.136719 64.066406 84.789062 L 63.316406 103.332031 C 63.300781 103.695312 62.992188 103.976562 62.636719 103.964844 L 53.152344 103.992188 C 52.785156 103.992188 52.488281 103.695312 52.488281 103.332031 C 52.589844 96.941406 52.777344 90.246094 53.109375 83.867188 L 53.160156 83.003906 C 53.214844 82.003906 53.265625 81.082031 53.214844 80.21875 C 53.160156 79.398438 53.007812 78.625 52.667969 77.890625 L 52.574219 77.695312 C 52.191406 76.867188 51.839844 76.105469 51.3125 75.859375 C 50.265625 75.375 48.605469 74.777344 46.714844 74.15625 C 44.550781 73.445312 42.128906 72.734375 40 72.136719 C 38.433594 77.28125 36.3125 83.511719 34.035156 89.425781 C 32 94.707031 29.84375 99.757812 27.84375 103.59375 C 27.722656 103.832031 27.46875 103.964844 27.222656 103.949219 L 17.261719 104 C 16.898438 104 16.597656 103.710938 16.597656 103.347656 C 16.597656 103.265625 16.617188 103.179688 16.648438 103.101562 C 18.644531 98.234375 20.996094 91.914062 23.25 85.492188 C 25.558594 78.914062 27.773438 72.210938 29.410156 66.828125 C 28.441406 65.644531 27.511719 64.324219 26.878906 62.867188 C 26.183594 61.257812 25.839844 59.515625 26.191406 57.644531 L 29.605469 39.3125 L 29.410156 39.304688 C 28.226562 39.253906 27.238281 39.210938 26.105469 39.703125 C 24.554688 40.378906 23.328125 41.75 21.964844 43.273438 C 21.410156 43.890625 20.839844 44.535156 20.183594 45.195312 L 20.140625 45.238281 C 19.65625 45.738281 19.144531 46.253906 18.667969 46.734375 L 12.636719 52.789062 C 12.542969 52.878906 12.433594 52.941406 12.3125 52.964844 L 12.3125 103.609375 C 12.3125 103.824219 12.132812 104 11.921875 104 L 0.558594 104 C 0.34375 104 0.164062 103.824219 0.164062 103.609375 L 0.164062 0.390625 C 0.164062 0.179688 0.34375 0 0.558594 0 Z M 40.492188 5.425781 C 43.203125 4.503906 46.039062 4.765625 48.425781 5.925781 C 50.808594 7.085938 52.753906 9.15625 53.679688 11.847656 C 54.609375 14.539062 54.347656 17.359375 53.179688 19.730469 C 52.011719 22.097656 49.925781 24.027344 47.214844 24.949219 C 44.507812 25.875 41.667969 25.609375 39.285156 24.453125 C 36.898438 23.292969 34.957031 21.21875 34.027344 18.527344 C 33.101562 15.835938 33.363281 13.015625 34.53125 10.648438 C 35.699219 8.277344 37.777344 6.347656 40.492188 5.425781 Z M 2.78125 33.609375 L 5.40625 33.609375 L 5.40625 46.09375 L 2.78125 46.09375 Z M 2.78125 33.609375 "/>
</g>
</svg>
