<?xml version="1.0" encoding="UTF-8"?>
<svg xmlns="http://www.w3.org/2000/svg" xmlns:xlink="http://www.w3.org/1999/xlink" width="80px" height="80px" viewBox="0 0 80 90" version="1.1">
<g id="surface1">
<path style=" stroke:none;fill-rule:evenodd;fill:rgb(0%,0%,0%);fill-opacity:1;" d="M 79.960938 65.066406 L 54.261719 90 L 41.039062 76.761719 L 42.53125 74.828125 L 52.222656 84.445312 L 52.34375 84.574219 C 53.269531 85.480469 54.753906 85.464844 55.660156 84.539062 L 56.5 83.683594 L 56.527344 83.710938 L 60.46875 79.628906 L 77.96875 63.070312 Z M 68.003906 40.203125 L 68.003906 3.882812 L 3.921875 3.882812 L 3.921875 70.726562 L 5.3125 69.90625 C 6.101562 69.441406 7.085938 69.597656 7.695312 70.230469 L 13.699219 75.941406 L 19.945312 70.351562 C 20.699219 69.679688 21.839844 69.703125 22.5625 70.386719 L 28.578125 76.042969 L 34.394531 70.40625 C 34.691406 70.117188 35.054688 69.941406 35.433594 69.882812 C 35.390625 71.234375 35.875 72.601562 36.886719 73.648438 C 36.625 73.996094 36.40625 74.378906 36.242188 74.785156 L 35.820312 74.417969 L 29.945312 80.109375 C 29.210938 80.824219 28.027344 80.84375 27.269531 80.128906 L 21.203125 74.417969 L 15.015625 79.953125 C 14.273438 80.683594 13.082031 80.699219 12.320312 79.976562 L 6.023438 73.984375 L 3.066406 75.734375 C 2.757812 75.945312 2.382812 76.070312 1.980469 76.070312 C 0.910156 76.070312 0.0390625 75.199219 0.0390625 74.128906 L 0.0390625 1.941406 C 0.0390625 0.871094 0.910156 0 1.980469 0 L 69.945312 0 C 71.015625 0 71.886719 0.871094 71.886719 1.941406 L 71.886719 43.347656 L 69.996094 41.453125 C 69.417969 40.871094 68.730469 40.453125 68.003906 40.203125 Z M 56.09375 41.042969 L 14.253906 41.042969 L 14.253906 37.160156 L 56.09375 37.160156 Z M 49.773438 53.933594 L 14.253906 53.933594 L 14.253906 50.050781 L 53.773438 50.050781 Z M 19.195312 28.113281 L 15.5 28.113281 L 15.5 14.226562 L 23.710938 14.226562 L 23.710938 17.242188 L 19.195312 17.242188 L 19.195312 19.886719 L 23.355469 19.886719 L 23.355469 22.902344 L 19.195312 22.902344 Z M 34.238281 28.113281 L 25.988281 28.113281 L 25.988281 14.226562 L 34.238281 14.226562 L 34.238281 17.242188 L 29.738281 17.242188 L 29.738281 19.417969 L 33.902344 19.417969 L 33.902344 22.433594 L 29.738281 22.433594 L 29.738281 25.058594 L 34.238281 25.058594 Z M 44.914062 28.113281 L 36.667969 28.113281 L 36.667969 14.226562 L 44.914062 14.226562 L 44.914062 17.242188 L 40.417969 17.242188 L 40.417969 19.417969 L 44.582031 19.417969 L 44.582031 22.433594 L 40.417969 22.433594 L 40.417969 25.058594 L 44.914062 25.058594 Z M 56.421875 23.902344 C 56.421875 24.761719 56.207031 25.527344 55.769531 26.195312 C 55.332031 26.863281 54.703125 27.382812 53.875 27.753906 C 53.054688 28.125 52.089844 28.308594 50.980469 28.308594 C 50.058594 28.308594 49.28125 28.242188 48.65625 28.113281 C 48.027344 27.984375 47.375 27.757812 46.699219 27.433594 L 46.699219 24.089844 C 47.410156 24.453125 48.15625 24.742188 48.929688 24.949219 C 49.703125 25.152344 50.410156 25.253906 51.054688 25.253906 C 51.613281 25.253906 52.023438 25.160156 52.28125 24.96875 C 52.542969 24.777344 52.671875 24.527344 52.671875 24.222656 C 52.671875 24.03125 52.617188 23.867188 52.515625 23.726562 C 52.410156 23.582031 52.242188 23.4375 52.007812 23.292969 C 51.78125 23.148438 51.164062 22.847656 50.160156 22.398438 C 49.257812 21.988281 48.578125 21.589844 48.125 21.203125 C 47.675781 20.816406 47.335938 20.371094 47.121094 19.875 C 46.902344 19.375 46.792969 18.78125 46.792969 18.097656 C 46.792969 16.820312 47.257812 15.824219 48.1875 15.105469 C 49.117188 14.386719 50.398438 14.03125 52.027344 14.03125 C 53.460938 14.03125 54.929688 14.363281 56.421875 15.027344 L 55.273438 17.917969 C 53.976562 17.324219 52.855469 17.027344 51.914062 17.027344 C 51.425781 17.027344 51.070312 17.117188 50.847656 17.289062 C 50.625 17.460938 50.515625 17.671875 50.515625 17.925781 C 50.515625 18.195312 50.660156 18.445312 50.941406 18.660156 C 51.222656 18.875 51.984375 19.265625 53.230469 19.835938 C 54.429688 20.371094 55.257812 20.953125 55.726562 21.570312 C 56.191406 22.1875 56.421875 22.964844 56.421875 23.902344 Z M 79.542969 58.351562 L 53.84375 83.285156 L 40.621094 70.042969 L 66.316406 45.113281 Z M 63.726562 63.226562 C 64.4375 65.46875 63.199219 67.859375 60.957031 68.570312 C 58.71875 69.28125 56.324219 68.042969 55.613281 65.804688 C 54.902344 63.566406 56.140625 61.171875 58.378906 60.460938 C 60.621094 59.75 63.015625 60.988281 63.726562 63.226562 Z M 73.269531 60.589844 L 56.109375 76.996094 C 55.035156 75.921875 53.277344 75.917969 52.199219 76.996094 L 46.964844 71.765625 C 48.042969 70.691406 48.046875 68.933594 46.964844 67.855469 L 64.128906 51.445312 C 65.203125 52.519531 66.960938 52.523438 68.039062 51.445312 L 73.273438 56.675781 C 72.195312 57.753906 72.191406 59.511719 73.269531 60.589844 Z M 73.269531 60.589844 "/>
</g>
</svg>
