<?xml version="1.0" encoding="UTF-8"?>
<svg xmlns="http://www.w3.org/2000/svg" xmlns:xlink="http://www.w3.org/1999/xlink" width="80px" height="80px" viewBox="0 0 80 80" version="1.1">
<g id="surface1">
<path style=" stroke:none;fill-rule:evenodd;fill:rgb(0%,0%,0%);fill-opacity:1;" d="M 35.882812 55.222656 C 35.554688 55.441406 35.109375 55.46875 34.742188 55.253906 C 26.742188 47.238281 16.863281 40.96875 18.265625 30.027344 C 19.332031 21.765625 25.710938 14.894531 35.378906 14.578125 C 45.328125 14.25 51.539062 21.667969 52.511719 29.949219 C 53.757812 40.535156 44.734375 46.398438 35.882812 55.222656 Z M 35.246094 0 C 44.957031 0 53.757812 3.917969 60.136719 10.214844 C 66.511719 16.542969 70.4375 25.246094 70.4375 34.902344 C 70.4375 41.945312 68.324219 48.527344 64.707031 54.003906 L 79.941406 70.46875 L 69.433594 79.992188 L 54.742188 63.964844 C 49.164062 67.65625 42.453125 69.804688 35.246094 69.804688 C 25.539062 69.804688 16.738281 65.886719 10.359375 59.589844 C 3.984375 53.261719 0.0585938 44.558594 0.0585938 34.902344 C 0.0585938 25.273438 4.011719 16.542969 10.363281 10.214844 C 16.738281 3.894531 25.515625 0 35.246094 0 Z M 55.570312 14.816406 C 50.382812 9.679688 43.214844 6.484375 35.3125 6.484375 C 27.410156 6.484375 20.242188 9.675781 15.0625 14.8125 C 9.886719 19.949219 6.664062 27.058594 6.664062 34.894531 C 6.664062 42.734375 9.878906 49.84375 15.0625 54.980469 C 20.242188 60.117188 27.410156 63.308594 35.3125 63.308594 C 43.214844 63.308594 50.382812 60.117188 55.5625 54.980469 C 60.742188 49.84375 63.964844 42.726562 63.964844 34.894531 C 63.964844 27.0625 60.75 19.953125 55.570312 14.816406 Z M 35.378906 25.027344 C 39.007812 25.027344 41.957031 27.949219 41.957031 31.550781 C 41.957031 35.148438 39.007812 38.074219 35.378906 38.074219 C 31.75 38.074219 28.800781 35.148438 28.800781 31.550781 C 28.800781 27.949219 31.75 25.027344 35.378906 25.027344 Z M 35.378906 25.027344 "/>
</g>
</svg>
