<?xml version="1.0" encoding="UTF-8"?>
<svg xmlns="http://www.w3.org/2000/svg" xmlns:xlink="http://www.w3.org/1999/xlink" width="80px" height="80px" viewBox="0 0 80 59" version="1.1">
<g id="surface1">
<path style=" stroke:none;fill-rule:evenodd;fill:rgb(0%,0%,0%);fill-opacity:1;" d="M 29.390625 22.632812 L 29.363281 22.632812 C 24.804688 22.128906 18.683594 22.640625 15.847656 22.632812 C 11.117188 22.832031 6.195312 26.878906 3.300781 32.902344 C 1.601562 36.4375 1.152344 39.097656 0.875 42.875 C 0.308594 46.6875 0.015625 50.457031 0.0351562 54.175781 C 0.964844 59.96875 8.414062 58.25 9.042969 54.175781 L 9.949219 42.503906 C 10.085938 40.738281 10.207031 39.546875 10.929688 37.867188 C 11.269531 37.078125 11.679688 36.40625 12.160156 35.847656 L 12.609375 57.171875 L 12.355469 58.957031 L 32.839844 58.957031 L 32.566406 56.96875 L 32.960938 33.449219 C 35.042969 32.621094 36.839844 32.234375 38.417969 32.171875 C 38.339844 32.332031 38.257812 32.492188 38.179688 32.652344 C 36.480469 36.1875 36.03125 38.847656 35.753906 42.625 C 35.191406 46.429688 34.894531 50.199219 34.914062 53.921875 C 35.84375 59.710938 43.292969 57.992188 43.921875 53.921875 L 44.828125 42.246094 C 44.964844 40.484375 45.085938 39.289062 45.808594 37.609375 C 46.148438 36.820312 46.558594 36.148438 47.039062 35.589844 L 47.488281 56.914062 L 47.1875 58.992188 L 67.757812 58.992188 L 67.445312 56.714844 L 67.761719 38.359375 L 67.761719 38.71875 L 67.828125 35.597656 C 68.308594 36.152344 68.710938 36.828125 69.058594 37.617188 C 69.785156 39.296875 69.902344 40.488281 70.039062 42.253906 L 70.941406 53.925781 C 71.816406 59.492188 79.953125 59.601562 79.953125 53.925781 C 79.972656 50.199219 79.679688 46.433594 79.113281 42.632812 C 78.832031 38.855469 78.382812 36.191406 76.6875 32.660156 C 73.714844 26.46875 69.871094 23.191406 64.035156 22.519531 C 60.4375 22.230469 54.394531 22.558594 50.792969 22.453125 C 49.894531 22.578125 49.007812 22.757812 48.152344 23.011719 C 45.90625 22.703125 42.941406 22.328125 39.980469 22.3125 C 35.65625 22.300781 31.355469 23.03125 29.390625 22.632812 Z M 57.472656 0 C 63.332031 0 68.085938 4.6875 68.085938 10.46875 C 68.085938 16.246094 63.332031 20.933594 57.472656 20.933594 C 51.609375 20.933594 46.855469 16.246094 46.855469 10.46875 C 46.855469 4.6875 51.609375 0 57.472656 0 Z M 22.515625 0 C 28.375 0 33.132812 4.6875 33.132812 10.46875 C 33.132812 16.246094 28.375 20.933594 22.515625 20.933594 C 16.65625 20.933594 11.898438 16.246094 11.898438 10.46875 C 11.898438 4.6875 16.65625 0 22.515625 0 Z M 22.515625 0 "/>
</g>
</svg>
