<?xml version="1.0" encoding="UTF-8"?>
<svg xmlns="http://www.w3.org/2000/svg" xmlns:xlink="http://www.w3.org/1999/xlink" width="80px" height="80px" viewBox="0 0 80 106" version="1.1">
<g id="surface1">
<path style=" stroke:none;fill-rule:evenodd;fill:rgb(0%,0%,0%);fill-opacity:1;" d="M 77.0625 97.324219 L 67.058594 95.546875 L 62.09375 104.355469 C 58.492188 108.777344 56.203125 101.507812 55.199219 98.972656 L 45.539062 80.917969 C 47.765625 80.15625 50.453125 77.949219 53.207031 75.46875 C 58.707031 75.578125 63.835938 74.636719 67.605469 69.878906 L 78.699219 91.128906 L 79.664062 93.171875 C 80.425781 95.824219 80.027344 97.574219 77.0625 97.324219 Z M 40.003906 0.261719 C 41.882812 0.183594 43.367188 0.828125 44.863281 1.773438 C 46.761719 2.964844 48.902344 5.328125 51.542969 6.820312 C 55.257812 8.921875 62.136719 6.023438 65.65625 11.207031 C 67.707031 14.230469 67.804688 16.597656 67.957031 18.941406 C 68.125 21.464844 68.574219 23.792969 71.179688 27.210938 C 75.503906 32.875 76.40625 36.644531 74.179688 40.570312 C 72.664062 43.246094 69.464844 44.734375 68.730469 46.433594 C 67.152344 50.039062 68.894531 52.757812 66.746094 56.964844 C 65.246094 59.886719 62.941406 61.808594 59.867188 62.789062 C 57.277344 63.613281 54.679688 62.417969 52.601562 63.285156 C 48.953125 64.804688 46.265625 68.332031 43.367188 69.226562 C 42.246094 69.570312 41.128906 69.742188 40.011719 69.734375 C 38.894531 69.742188 37.777344 69.570312 36.660156 69.226562 C 33.757812 68.332031 31.074219 64.804688 27.425781 63.285156 C 25.347656 62.417969 22.75 63.621094 20.15625 62.789062 C 17.082031 61.808594 14.777344 59.886719 13.28125 56.964844 C 11.121094 52.757812 12.863281 50.039062 11.296875 46.433594 C 10.558594 44.734375 7.363281 43.246094 5.847656 40.570312 C 3.605469 36.644531 4.503906 32.875 8.828125 27.21875 C 11.433594 23.800781 11.886719 21.476562 12.050781 18.949219 C 12.207031 16.605469 12.300781 14.238281 14.355469 11.214844 C 17.878906 6.03125 24.757812 8.933594 28.464844 6.828125 C 31.109375 5.335938 33.246094 2.972656 35.144531 1.78125 C 36.632812 0.828125 38.125 0.175781 40.003906 0.261719 Z M 33.898438 30.980469 L 38.417969 35.246094 L 46.199219 27.40625 C 46.96875 26.636719 47.453125 26.015625 48.398438 26.976562 L 51.480469 30.101562 C 52.496094 31.097656 52.445312 31.675781 51.492188 32.601562 L 40.175781 43.625 C 38.167969 45.582031 38.515625 45.703125 36.46875 43.695312 L 28.699219 36.035156 C 28.273438 35.582031 28.316406 35.117188 28.785156 34.660156 L 32.363281 30.988281 C 32.910156 30.421875 33.34375 30.457031 33.898438 30.980469 Z M 40.003906 14.195312 C 51.59375 14.195312 60.992188 23.507812 60.992188 34.996094 C 60.992188 46.484375 51.59375 55.796875 40.003906 55.796875 C 28.414062 55.796875 19.015625 46.484375 19.015625 34.996094 C 19.015625 23.5 28.414062 14.195312 40.003906 14.195312 Z M 2.9375 97.324219 L 12.949219 95.546875 L 17.914062 104.355469 C 21.519531 108.777344 23.804688 101.507812 24.808594 98.972656 L 34.46875 80.917969 C 32.242188 80.15625 29.558594 77.949219 26.800781 75.46875 C 21.300781 75.578125 16.171875 74.636719 12.40625 69.878906 L 1.300781 91.128906 L 0.335938 93.171875 C -0.425781 95.824219 -0.0273438 97.574219 2.9375 97.324219 Z M 2.9375 97.324219 "/>
</g>
</svg>
