<?xml version="1.0" encoding="UTF-8"?>
<svg xmlns="http://www.w3.org/2000/svg" xmlns:xlink="http://www.w3.org/1999/xlink" width="80px" height="80px" viewBox="0 0 80 60" version="1.1">
<g id="surface1">
<path style=" stroke:none;fill-rule:evenodd;fill:rgb(0%,0%,0%);fill-opacity:1;" d="M 0 25.507812 L 16.164062 25.507812 L 16.164062 54.039062 L 0 54.039062 Z M 53.210938 0.0820312 C 61.152344 0.0820312 67.605469 6.46875 67.605469 14.363281 C 67.605469 22.242188 61.164062 28.640625 53.210938 28.640625 C 45.265625 28.640625 38.816406 22.253906 38.816406 14.363281 C 38.820312 6.484375 45.261719 0.0820312 53.210938 0.0820312 Z M 53 16.15625 L 53.054688 17.300781 C 53.054688 18.074219 52.851562 18.683594 52.449219 19.121094 L 58.691406 19.121094 L 58.691406 21.871094 L 47.714844 21.871094 L 47.714844 19.121094 L 48.769531 19.121094 C 49.160156 19.019531 49.367188 18.667969 49.386719 18.070312 L 49.402344 17.53125 L 49.347656 16.15625 L 47.6875 16.15625 L 47.6875 13.496094 L 49.269531 13.496094 L 49.207031 11.289062 C 49.207031 9.898438 49.628906 8.808594 50.460938 8.019531 C 51.300781 7.238281 52.433594 6.84375 53.867188 6.84375 C 55.402344 6.84375 56.59375 7.234375 57.453125 8.015625 C 58.3125 8.796875 58.742188 9.855469 58.742188 11.191406 L 55.351562 11.191406 C 55.351562 10.125 54.882812 9.589844 53.957031 9.589844 C 53.605469 9.589844 53.328125 9.726562 53.117188 10.003906 C 52.902344 10.28125 52.800781 10.699219 52.800781 11.28125 L 52.890625 13.492188 L 56.046875 13.492188 L 56.046875 16.152344 L 53 16.152344 Z M 19.421875 51.644531 L 19.421875 27.792969 L 30.234375 27.792969 C 34.816406 28.609375 39.402344 31.074219 43.984375 33.9375 L 52.382812 33.9375 C 56.183594 34.164062 58.175781 37.984375 54.480469 40.496094 C 51.535156 42.640625 47.648438 42.519531 43.664062 42.164062 C 40.917969 42.027344 40.800781 45.691406 43.664062 45.703125 C 44.660156 45.78125 45.742188 45.546875 46.6875 45.546875 C 51.660156 45.539062 55.75 44.597656 58.253906 40.703125 L 59.511719 37.792969 L 72.003906 31.648438 C 78.253906 29.609375 82.695312 36.09375 78.09375 40.605469 C 69.042969 47.136719 59.765625 52.507812 50.273438 56.847656 C 43.378906 61.007812 36.484375 60.867188 29.597656 56.847656 Z M 19.421875 51.644531 "/>
</g>
</svg>
