<?xml version="1.0" encoding="UTF-8"?>
<svg xmlns="http://www.w3.org/2000/svg" xmlns:xlink="http://www.w3.org/1999/xlink" width="80px" height="80px" viewBox="0 0 80 80" version="1.1">
<g id="surface1">
<path style=" stroke:none;fill-rule:nonzero;fill:rgb(0%,0%,0%);fill-opacity:1;" d="M 30.578125 45.9375 C 31.226562 46.53125 31.578125 47.324219 31.632812 48.140625 C 31.6875 48.96875 31.429688 49.824219 30.859375 50.507812 C 31.410156 50.070312 32.082031 49.839844 32.757812 49.824219 C 33.574219 49.800781 34.402344 50.074219 35.050781 50.640625 C 35.058594 50.644531 35.089844 50.675781 35.136719 50.71875 L 34.589844 51.304688 L 35.136719 50.71875 C 35.160156 50.738281 35.183594 50.761719 35.203125 50.785156 C 35.820312 51.394531 36.136719 52.1875 36.164062 52.992188 C 36.1875 53.722656 35.972656 54.464844 35.53125 55.089844 C 35.917969 54.890625 36.339844 54.777344 36.769531 54.757812 C 37.527344 54.71875 38.300781 54.960938 38.917969 55.472656 C 38.949219 55.5 38.976562 55.523438 39.003906 55.546875 C 39.632812 56.109375 39.964844 56.863281 40.007812 57.640625 C 40.046875 58.421875 39.800781 59.222656 39.261719 59.867188 L 37.8125 61.605469 C 38.09375 61.777344 38.375 61.949219 38.660156 62.125 C 41.613281 63.945312 44.917969 65.980469 47.386719 63.027344 L 41.433594 58.542969 L 42.882812 56.625 L 49.28125 61.449219 L 49.855469 61.3125 L 49.96875 61.292969 C 50.78125 61.183594 51.402344 60.878906 51.847656 60.390625 C 52.210938 59.992188 52.488281 59.457031 52.679688 58.792969 L 44.585938 53.335938 L 45.929688 51.34375 L 54.386719 57.046875 C 55.382812 56.789062 56.164062 56.421875 56.730469 55.9375 C 57.152344 55.582031 57.460938 55.144531 57.65625 54.636719 L 47.488281 47.359375 L 48.878906 45.40625 L 59.484375 52.992188 C 60.148438 52.980469 60.71875 52.785156 61.175781 52.464844 C 61.582031 52.179688 61.914062 51.792969 62.152344 51.347656 C 62.398438 50.898438 62.542969 50.390625 62.578125 49.875 C 62.628906 49.164062 62.464844 48.445312 62.058594 47.84375 C 61.914062 47.789062 61.773438 47.707031 61.65625 47.597656 C 58.226562 44.753906 54.863281 42.199219 51.359375 39.984375 C 47.90625 37.808594 44.292969 35.949219 40.296875 34.453125 C 39.675781 34.472656 39.136719 34.46875 38.667969 34.464844 C 37.128906 34.449219 36.769531 34.445312 35.625 36.691406 C 34.773438 38.359375 33.65625 39.613281 32.226562 40.296875 C 30.871094 40.949219 29.296875 41.070312 27.472656 40.542969 C 24.777344 39.757812 24.144531 39.113281 24.617188 37.476562 C 24.75 37.03125 24.992188 36.589844 25.316406 36.015625 C 25.398438 35.863281 25.488281 35.699219 25.714844 35.28125 C 27.109375 32.652344 28.332031 30.53125 29.527344 28.832031 C 28.28125 28.6875 27.277344 28.488281 26.292969 28.1875 C 25.207031 27.855469 24.199219 27.425781 22.953125 26.832031 L 14.390625 42.25 L 17.773438 45.75 L 19.058594 44.265625 C 19.648438 43.589844 20.449219 43.195312 21.28125 43.117188 C 22.109375 43.039062 22.960938 43.273438 23.652344 43.84375 C 23.664062 43.851562 23.65625 43.847656 23.707031 43.894531 C 24.363281 44.464844 24.746094 45.25 24.828125 46.0625 C 24.882812 46.628906 24.792969 47.207031 24.546875 47.730469 L 25.855469 46.199219 C 25.863281 46.1875 25.871094 46.179688 25.878906 46.171875 L 25.878906 46.167969 C 25.894531 46.148438 25.914062 46.128906 25.9375 46.109375 C 26.523438 45.472656 27.316406 45.125 28.125 45.070312 C 28.957031 45.019531 29.8125 45.277344 30.488281 45.855469 L 30.492188 45.855469 C 30.5 45.863281 30.507812 45.871094 30.519531 45.878906 C 30.539062 45.898438 30.558594 45.914062 30.578125 45.9375 Z M 36.257812 63.46875 L 34.761719 65.265625 C 34.738281 65.292969 34.714844 65.320312 34.695312 65.34375 C 34.148438 65.953125 33.398438 66.277344 32.628906 66.316406 C 31.875 66.351562 31.101562 66.113281 30.484375 65.597656 C 30.453125 65.574219 30.425781 65.550781 30.402344 65.527344 C 29.773438 64.964844 29.4375 64.207031 29.394531 63.429688 C 29.363281 62.839844 29.5 62.234375 29.800781 61.695312 L 29.644531 61.878906 C 29.625 61.902344 29.640625 61.882812 29.566406 61.960938 C 28.964844 62.601562 28.15625 62.929688 27.335938 62.953125 C 26.519531 62.976562 25.691406 62.699219 25.042969 62.136719 L 25.042969 62.132812 L 25.042969 62.136719 C 25.027344 62.121094 25.011719 62.105469 24.992188 62.089844 C 24.980469 62.078125 24.96875 62.066406 24.957031 62.054688 L 24.953125 62.054688 C 24.933594 62.035156 24.910156 62.011719 24.890625 61.988281 C 24.273438 61.378906 23.957031 60.589844 23.929688 59.78125 C 23.910156 59.226562 24.03125 58.660156 24.285156 58.148438 C 23.738281 58.617188 23.0625 58.878906 22.371094 58.921875 C 21.539062 58.976562 20.6875 58.714844 20.007812 58.136719 L 20.003906 58.140625 C 19.996094 58.132812 19.984375 58.121094 19.976562 58.113281 C 19.957031 58.097656 19.9375 58.078125 19.917969 58.058594 C 19.269531 57.464844 18.917969 56.667969 18.863281 55.851562 C 18.808594 55.011719 19.070312 54.148438 19.660156 53.457031 L 20.117188 52.921875 C 19.605469 53.320312 19 53.550781 18.382812 53.609375 C 17.554688 53.6875 16.699219 53.457031 16.011719 52.886719 C 15.992188 52.871094 15.976562 52.855469 15.957031 52.839844 L 15.953125 52.835938 C 15.296875 52.265625 14.917969 51.480469 14.835938 50.667969 C 14.753906 49.847656 14.980469 49 15.539062 48.324219 C 15.554688 48.304688 15.570312 48.285156 15.585938 48.269531 L 15.589844 48.269531 L 16.195312 47.570312 L 12.566406 43.816406 L 11.089844 46.351562 L 11.085938 46.359375 L 11.054688 46.40625 C 10.566406 47.207031 9.796875 47.734375 8.945312 47.941406 C 8.101562 48.144531 7.179688 48.035156 6.382812 47.570312 L 6.335938 47.539062 L 6.328125 47.535156 L 1.65625 44.703125 C 0.839844 44.207031 0.308594 43.433594 0.101562 42.578125 C -0.109375 41.722656 0.00390625 40.785156 0.476562 39.972656 L 15.277344 14.554688 L 15.28125 14.546875 L 15.300781 14.511719 L 15.308594 14.503906 C 15.796875 13.699219 16.570312 13.171875 17.421875 12.96875 C 18.261719 12.761719 19.1875 12.871094 19.984375 13.335938 L 19.992188 13.34375 L 20.027344 13.363281 L 20.039062 13.371094 L 24.707031 16.203125 C 25.523438 16.699219 26.054688 17.472656 26.265625 18.328125 C 26.472656 19.183594 26.359375 20.117188 25.886719 20.933594 L 23.777344 24.5625 C 25.042969 25.167969 26.019531 25.597656 26.988281 25.894531 C 28.15625 26.25 29.410156 26.449219 31.285156 26.582031 L 31.277344 26.628906 C 35.753906 21.769531 40.867188 22.152344 54.34375 23.152344 L 54.988281 23.199219 L 54.113281 21.691406 C 53.640625 20.878906 53.527344 19.941406 53.734375 19.089844 C 53.945312 18.234375 54.476562 17.457031 55.292969 16.964844 L 59.960938 14.132812 L 59.972656 14.121094 L 60.007812 14.101562 L 60.015625 14.097656 C 60.8125 13.632812 61.738281 13.523438 62.578125 13.726562 C 63.429688 13.929688 64.203125 14.457031 64.691406 15.261719 L 64.699219 15.273438 L 64.71875 15.304688 L 64.722656 15.316406 L 79.523438 40.730469 C 79.996094 41.546875 80.109375 42.480469 79.898438 43.335938 C 79.691406 44.191406 79.160156 44.964844 78.34375 45.460938 L 73.671875 48.292969 L 73.664062 48.300781 L 73.628906 48.320312 L 73.617188 48.328125 C 72.820312 48.792969 71.898438 48.902344 71.054688 48.699219 C 70.203125 48.492188 69.433594 47.96875 68.945312 47.164062 L 68.9375 47.15625 L 68.914062 47.121094 L 68.910156 47.109375 L 67.390625 44.5 L 64.265625 46.859375 C 64.828125 47.847656 65.050781 48.957031 64.976562 50.035156 C 64.917969 50.890625 64.671875 51.734375 64.265625 52.484375 C 63.855469 53.246094 63.277344 53.917969 62.550781 54.429688 C 61.8125 54.945312 60.933594 55.285156 59.941406 55.375 C 59.609375 56.308594 59.054688 57.105469 58.28125 57.761719 C 57.4375 58.480469 56.347656 59.015625 55.007812 59.363281 C 54.714844 60.421875 54.253906 61.308594 53.613281 62.007812 C 52.796875 62.902344 51.722656 63.460938 50.371094 63.660156 L 49.808594 63.792969 C 46.078125 69.511719 41.480469 66.679688 37.402344 64.164062 C 37.011719 63.925781 36.628906 63.6875 36.257812 63.46875 Z M 9.019531 45.140625 L 23.808594 19.730469 C 23.964844 19.464844 24 19.167969 23.933594 18.894531 C 23.871094 18.636719 23.710938 18.402344 23.46875 18.253906 L 18.808594 15.425781 L 18.804688 15.429688 L 18.769531 15.410156 L 18.773438 15.410156 C 18.523438 15.269531 18.242188 15.234375 17.984375 15.296875 C 17.730469 15.359375 17.503906 15.507812 17.367188 15.734375 L 17.347656 15.769531 L 2.554688 41.175781 C 2.402344 41.441406 2.363281 41.742188 2.429688 42.011719 C 2.492188 42.273438 2.652344 42.503906 2.898438 42.652344 L 7.566406 45.484375 L 7.582031 45.496094 L 7.585938 45.492188 C 7.832031 45.636719 8.121094 45.671875 8.382812 45.609375 C 8.632812 45.546875 8.859375 45.398438 9 45.175781 L 8.996094 45.171875 L 9.015625 45.140625 Z M 58.078125 23.734375 C 58.171875 23.828125 58.242188 23.9375 58.300781 24.058594 L 59.476562 26.136719 L 70.980469 45.898438 L 70.984375 45.898438 L 71.003906 45.933594 L 71 45.933594 C 71.140625 46.15625 71.367188 46.308594 71.617188 46.367188 C 71.878906 46.429688 72.167969 46.398438 72.414062 46.253906 L 72.417969 46.253906 L 72.433594 46.246094 L 77.101562 43.410156 C 77.347656 43.265625 77.507812 43.03125 77.570312 42.773438 C 77.636719 42.5 77.597656 42.199219 77.445312 41.9375 L 62.652344 16.527344 L 62.632812 16.492188 C 62.496094 16.265625 62.269531 16.117188 62.015625 16.058594 C 61.757812 15.996094 61.476562 16.027344 61.226562 16.167969 L 61.230469 16.167969 L 61.195312 16.191406 L 61.191406 16.1875 L 56.53125 19.011719 C 56.289062 19.160156 56.128906 19.394531 56.066406 19.652344 C 56 19.925781 56.035156 20.226562 56.191406 20.492188 Z M 16.15625 48.835938 Z M 23.503906 47.894531 Z M 23.503906 47.894531 "/>
</g>
</svg>
