<?xml version="1.0" encoding="UTF-8"?>
<svg xmlns="http://www.w3.org/2000/svg" xmlns:xlink="http://www.w3.org/1999/xlink" width="80px" height="80px" viewBox="0 0 80 79" version="1.1">
<g id="surface1">
<path style=" stroke:none;fill-rule:evenodd;fill:rgb(0%,0%,0%);fill-opacity:1;" d="M 64.683594 25.929688 C 68.351562 29.292969 73.25 33.441406 75.875 38.175781 L 76.238281 38.828125 L 75.875 39.472656 C 72.175781 46.167969 65.601562 51.671875 59.945312 55.464844 C 55.1875 58.652344 49.890625 60.648438 44.265625 61.136719 L 47.886719 54.890625 C 50.714844 54.128906 53.398438 52.878906 55.898438 51.191406 C 60.300781 48.242188 65.808594 43.992188 68.773438 38.824219 C 67.171875 36.027344 63.625 33.5 61.566406 31.296875 Z M 16.210938 0 L 60.910156 0 L 49.910156 18.210938 C 46.308594 16.84375 42.496094 16.101562 38.542969 16.101562 C 31.890625 16.101562 23.933594 18.191406 18.410156 21.894531 C 12.738281 25.691406 7.863281 31.195312 4.164062 37.878906 L 3.800781 38.53125 L 4.164062 39.183594 C 7.863281 45.871094 12.746094 51.375 18.410156 55.167969 C 20.449219 56.535156 24.273438 57.679688 26.5 58.582031 L 14.707031 78.921875 C 6.585938 78.167969 0.175781 71.3125 0.175781 63.042969 L 0.175781 15.964844 C 0.175781 7.183594 7.390625 0 16.210938 0 Z M 72.882812 2.832031 C 77.070312 5.71875 79.824219 10.539062 79.824219 15.964844 L 79.824219 63.042969 C 79.824219 71.824219 72.609375 79.007812 63.789062 79.007812 L 27.546875 79.007812 Z M 29.351562 53.671875 L 32.039062 49.023438 C 28.84375 47 26.71875 43.441406 26.71875 39.390625 C 26.71875 33.085938 31.851562 27.972656 38.183594 27.972656 C 40.097656 27.972656 41.90625 28.4375 43.492188 29.273438 L 47.050781 23.148438 C 44.34375 22.152344 41.484375 21.617188 38.535156 21.617188 C 33.363281 21.617188 26.785156 23.257812 22.453125 26.160156 C 18.054688 29.109375 14.230469 33.363281 11.265625 38.539062 C 14.222656 43.714844 18.054688 47.964844 22.453125 50.910156 C 24.113281 52.019531 27.542969 52.949219 29.351562 53.671875 Z M 39.875 35.519531 L 43.492188 29.273438 C 42.515625 28.761719 41.464844 28.394531 40.382812 28.1875 C 39.605469 29.355469 39.136719 30.769531 39.136719 32.292969 C 39.136719 33.453125 39.410156 34.550781 39.875 35.519531 Z M 39.875 35.519531 "/>
</g>
</svg>
