<?xml version="1.0" encoding="UTF-8"?>
<svg xmlns="http://www.w3.org/2000/svg" xmlns:xlink="http://www.w3.org/1999/xlink" width="80px" height="80px" viewBox="0 0 80 70" version="1.1">
<g id="surface1">
<path style=" stroke:none;fill-rule:evenodd;fill:rgb(0%,0%,0%);fill-opacity:1;" d="M 79.648438 29.234375 L 73.953125 34.914062 L 79.648438 40.589844 L 80 40.941406 L 79.648438 41.289062 L 76.042969 44.882812 L 75.691406 45.234375 L 75.339844 44.882812 L 69.640625 39.207031 L 63.945312 44.882812 L 63.59375 45.234375 L 63.242188 44.882812 L 59.636719 41.289062 L 59.285156 40.941406 L 59.636719 40.589844 L 65.332031 34.914062 L 59.636719 29.234375 L 59.285156 28.886719 L 59.636719 28.535156 L 63.242188 24.941406 L 63.59375 24.589844 L 63.945312 24.941406 L 69.640625 30.617188 L 75.339844 24.941406 L 75.691406 24.589844 L 76.042969 24.941406 L 79.648438 28.535156 L 80 28.886719 Z M 0 69.980469 L 0 58.671875 C 6.074219 55.976562 24.660156 50.859375 25.539062 43.449219 C 25.734375 41.777344 21.777344 35.40625 20.871094 32.351562 C 18.933594 29.269531 18.234375 24.371094 20.359375 21.113281 C 21.203125 19.816406 20.839844 15.097656 20.839844 13.316406 C 20.839844 -4.417969 52.011719 -4.421875 52.011719 13.316406 C 52.011719 15.558594 51.496094 19.679688 52.714844 21.4375 C 54.757812 24.382812 53.703125 29.613281 51.980469 32.34375 C 50.871094 35.554688 46.671875 41.628906 47.03125 43.445312 C 48.367188 50.210938 65.613281 54.753906 71.035156 57.160156 L 71.035156 69.972656 L 0 69.972656 Z M 0 69.980469 "/>
</g>
</svg>
