<?xml version="1.0" encoding="UTF-8"?>
<svg xmlns="http://www.w3.org/2000/svg" xmlns:xlink="http://www.w3.org/1999/xlink" width="80px" height="80px" viewBox="0 0 80 109" version="1.1">
<g id="surface1">
<path style=" stroke:none;fill-rule:evenodd;fill:rgb(0%,0%,0%);fill-opacity:1;" d="M 40.304688 85.613281 C 47.273438 85.628906 52.898438 87.886719 52.898438 90.609375 C 52.898438 93.371094 47.152344 95.601562 40.070312 95.601562 C 32.992188 95.601562 27.246094 93.363281 27.246094 90.609375 C 27.246094 87.890625 32.808594 85.667969 39.730469 85.617188 C 39.90625 85.613281 40.148438 85.613281 40.304688 85.613281 Z M 15.5625 15.667969 C 14.996094 14.765625 13.921875 13.539062 13.921875 12.484375 C 13.921875 11.890625 14.398438 11.109375 15.078125 10.941406 C 15.023438 10.046875 14.988281 9.144531 14.988281 8.246094 C 14.988281 7.714844 14.996094 7.179688 15.019531 6.652344 C 15.046875 6.320312 15.109375 5.992188 15.195312 5.671875 C 15.613281 4.320312 16.523438 3.175781 17.746094 2.457031 C 18.179688 2.1875 18.648438 1.972656 19.128906 1.800781 C 20.003906 1.484375 19.582031 0.0195312 20.542969 0.00390625 C 22.785156 -0.0585938 26.472656 1.980469 27.910156 3.527344 C 28.828125 4.53125 29.351562 5.832031 29.378906 7.1875 L 29.289062 11.089844 C 29.691406 11.183594 30.132812 11.492188 30.234375 11.890625 C 30.539062 13.121094 29.253906 14.652344 28.65625 15.632812 C 28.101562 16.535156 25.996094 19.460938 25.992188 19.480469 C 25.984375 19.582031 26.039062 19.722656 26.183594 19.933594 C 29.179688 24.023438 36.695312 22.007812 38.074219 28.460938 L 6.078125 28.460938 C 7.457031 22.003906 14.976562 24.023438 17.972656 19.933594 C 18.132812 19.699219 18.207031 19.574219 18.203125 19.46875 C 18.203125 19.414062 15.78125 16.007812 15.5625 15.667969 Z M 67.363281 39.90625 L 56.5625 52.46875 L 53.648438 49.984375 L 64.449219 37.425781 Z M 54.121094 55.3125 L 50.304688 59.753906 L 47.386719 57.273438 L 51.203125 52.832031 Z M 25.785156 82.917969 L 25.785156 67.320312 L 2.101562 39.429688 C 1.167969 38.277344 0.519531 37.078125 0.222656 35.972656 C -0.0546875 34.929688 -0.0507812 33.914062 0.277344 33.011719 C 0.636719 32.011719 1.359375 31.210938 2.449219 30.703125 C 3.199219 30.355469 4.128906 30.15625 5.238281 30.152344 L 73.839844 30.144531 C 75.078125 30.097656 76.175781 30.289062 77.078125 30.675781 C 78.175781 31.136719 78.996094 31.894531 79.492188 32.871094 C 79.964844 33.816406 80.105469 34.925781 79.855469 36.136719 C 79.625 37.257812 79.046875 38.480469 78.085938 39.726562 L 54.359375 67.332031 L 54.359375 82.921875 C 53.179688 82.382812 51.886719 81.90625 50.507812 81.511719 L 50.507812 66.636719 L 50.976562 65.398438 L 75.050781 37.386719 C 75.640625 36.617188 75.976562 35.933594 76.09375 35.367188 C 76.167969 35.027344 76.152344 34.753906 76.058594 34.574219 C 75.984375 34.425781 75.8125 34.285156 75.5625 34.179688 C 75.167969 34.003906 74.613281 33.925781 73.929688 33.957031 L 5.246094 33.96875 C 4.722656 33.960938 4.332031 34.03125 4.074219 34.152344 C 3.964844 34.199219 3.902344 34.253906 3.886719 34.292969 C 3.839844 34.433594 3.859375 34.679688 3.941406 34.984375 C 4.105469 35.597656 4.503906 36.3125 5.09375 37.042969 L 29.175781 65.414062 L 29.636719 66.636719 L 29.636719 81.515625 C 28.257812 81.910156 26.964844 82.378906 25.785156 82.917969 Z M 51.40625 15.667969 C 50.835938 14.765625 49.769531 13.539062 49.769531 12.484375 C 49.769531 11.890625 50.242188 11.109375 50.921875 10.941406 C 50.867188 10.046875 50.832031 9.144531 50.832031 8.246094 C 50.832031 7.714844 50.839844 7.179688 50.863281 6.652344 C 50.890625 6.320312 50.953125 5.992188 51.042969 5.671875 C 51.457031 4.320312 52.367188 3.175781 53.589844 2.457031 C 54.023438 2.1875 54.503906 1.96875 54.972656 1.800781 C 55.84375 1.496094 55.425781 0.0195312 56.386719 0.00390625 C 58.628906 -0.0585938 62.320312 1.980469 63.757812 3.527344 C 64.671875 4.535156 65.191406 5.832031 65.226562 7.1875 L 65.136719 11.089844 C 65.53125 11.183594 65.984375 11.507812 66.078125 11.890625 C 66.371094 13.113281 65.097656 14.652344 64.5 15.632812 C 63.949219 16.535156 61.835938 19.46875 61.835938 19.480469 C 61.835938 19.582031 61.882812 19.722656 62.027344 19.933594 C 65.027344 24.023438 72.542969 22.007812 73.917969 28.460938 L 41.921875 28.460938 C 43.300781 22.003906 50.820312 24.023438 53.816406 19.933594 C 53.976562 19.699219 54.046875 19.574219 54.046875 19.46875 C 54.046875 19.414062 51.625 16.007812 51.40625 15.667969 Z M 45.6875 89.585938 L 45.6875 91.378906 L 44.613281 91.339844 C 44.570312 92.007812 44.5 92.492188 44.402344 92.992188 L 42.320312 92.628906 L 42.320312 90.75 C 42.320312 90.460938 42.273438 90.261719 42.171875 90.167969 C 42.074219 90.074219 41.667969 90.019531 41.394531 90.011719 L 41.300781 90.800781 C 41.183594 91.761719 40.917969 92.421875 40.507812 92.785156 C 40.097656 93.148438 39.566406 93.328125 38.910156 93.328125 C 38.257812 93.328125 37.519531 93.269531 37.128906 93.140625 C 36.738281 93.019531 36.4375 92.84375 36.238281 92.605469 C 35.886719 92.179688 35.6875 91.71875 35.636719 91.027344 L 34.277344 90.992188 L 34.277344 89.175781 L 35.636719 89.222656 C 35.695312 88.429688 35.804688 87.859375 35.957031 87.308594 L 38.089844 87.671875 C 37.894531 88.367188 37.796875 89.089844 37.796875 89.851562 C 37.796875 90.167969 37.8125 90.464844 37.847656 90.738281 L 38.628906 90.738281 L 38.722656 89.964844 C 38.828125 88.960938 39.140625 88.292969 39.660156 87.960938 C 40.117188 87.667969 40.714844 87.523438 41.449219 87.523438 C 42.414062 87.523438 43.332031 87.707031 43.769531 88.078125 C 44.207031 88.449219 44.476562 88.875 44.574219 89.546875 Z M 40.253906 83.953125 C 48.785156 83.972656 55.679688 87.632812 55.679688 92.082031 C 55.679688 96.5625 48.6875 100.203125 40.070312 100.203125 C 31.453125 100.203125 24.464844 96.5625 24.464844 92.082031 C 24.464844 87.628906 31.359375 83.988281 39.894531 83.953125 Z M 55.679688 101.128906 C 55.679688 113.378906 18.289062 110.347656 25.125 98.800781 C 29.539062 106.46875 50.609375 106.460938 55.019531 98.800781 C 55.429688 99.511719 55.679688 100.304688 55.679688 101.128906 Z M 55.679688 101.128906 "/>
</g>
</svg>
