<?xml version="1.0" encoding="UTF-8"?>
<svg xmlns="http://www.w3.org/2000/svg" xmlns:xlink="http://www.w3.org/1999/xlink" width="80px" height="80px" viewBox="0 0 80 136" version="1.1">
<g id="surface1">
<path style=" stroke:none;fill-rule:evenodd;fill:rgb(0%,0%,0%);fill-opacity:1;" d="M 14.339844 0 L 65.660156 0 C 69.550781 0 73.121094 1.59375 75.667969 4.128906 C 78.25 6.695312 79.804688 10.203125 79.804688 14.089844 L 79.804688 121.921875 C 79.804688 125.796875 78.203125 129.347656 75.667969 131.882812 C 73.085938 134.449219 69.5625 136 65.660156 136 L 14.339844 136 C 10.449219 136 6.878906 134.40625 4.332031 131.882812 C 1.75 129.316406 0.195312 125.808594 0.195312 121.921875 L 0.195312 14.078125 C 0.195312 10.203125 1.796875 6.652344 4.332031 4.117188 C 6.921875 1.550781 10.449219 0 14.339844 0 Z M 11.484375 81.425781 L 68.039062 81.425781 C 68.785156 81.425781 69.382812 82.023438 69.382812 82.765625 L 69.382812 105.085938 C 69.382812 105.816406 68.785156 106.425781 68.039062 106.425781 L 11.484375 106.425781 C 10.75 106.425781 10.136719 106.636719 10.136719 105.90625 L 10.136719 83.570312 C 10.136719 82.839844 10.75 81.425781 11.484375 81.425781 Z M 28.777344 98.359375 L 24.128906 98.359375 L 23.460938 100.539062 L 19.269531 100.539062 L 24.273438 87.3125 L 28.765625 87.3125 L 33.75 100.539062 L 29.445312 100.539062 Z M 27.898438 95.492188 L 26.453125 90.742188 L 24.996094 95.492188 Z M 34.816406 87.3125 L 40.921875 87.3125 C 42.125 87.3125 43.101562 87.480469 43.835938 87.800781 C 44.582031 88.121094 45.195312 88.585938 45.671875 89.195312 C 46.160156 89.804688 46.507812 90.511719 46.71875 91.320312 C 46.941406 92.128906 47.050781 92.980469 47.050781 93.875 C 47.050781 95.292969 46.882812 96.390625 46.5625 97.164062 C 46.238281 97.9375 45.792969 98.589844 45.214844 99.121094 C 44.636719 99.652344 44.027344 99.996094 43.371094 100.171875 C 42.46875 100.417969 41.65625 100.539062 40.921875 100.539062 L 34.816406 100.539062 Z M 38.921875 90.300781 L 38.921875 97.527344 L 39.933594 97.527344 C 40.789062 97.527344 41.402344 97.441406 41.769531 97.242188 C 42.136719 97.050781 42.414062 96.71875 42.625 96.246094 C 42.835938 95.769531 42.9375 95.003906 42.9375 93.953125 C 42.9375 92.546875 42.703125 91.597656 42.246094 91.078125 C 41.789062 90.554688 41.023438 90.300781 39.957031 90.300781 Z M 48.21875 96.15625 L 52.113281 95.914062 C 52.191406 96.542969 52.367188 97.019531 52.625 97.351562 C 53.046875 97.882812 53.648438 98.148438 54.4375 98.148438 C 55.027344 98.148438 55.46875 98.015625 55.792969 97.738281 C 56.117188 97.460938 56.269531 97.152344 56.269531 96.785156 C 56.269531 96.445312 56.125 96.132812 55.828125 95.867188 C 55.527344 95.601562 54.824219 95.347656 53.722656 95.105469 C 51.921875 94.707031 50.644531 94.164062 49.875 93.5 C 49.109375 92.835938 48.71875 91.984375 48.71875 90.953125 C 48.71875 90.277344 48.917969 89.636719 49.308594 89.027344 C 49.710938 88.421875 50.300781 87.945312 51.089844 87.601562 C 51.878906 87.257812 52.96875 87.082031 54.359375 87.082031 C 56.058594 87.082031 57.351562 87.390625 58.238281 88.019531 C 59.128906 88.652344 59.664062 89.648438 59.832031 91.019531 L 55.972656 91.253906 C 55.871094 90.65625 55.648438 90.210938 55.324219 89.945312 C 54.992188 89.671875 54.535156 89.539062 53.957031 89.539062 C 53.480469 89.539062 53.125 89.636719 52.878906 89.835938 C 52.632812 90.035156 52.511719 90.277344 52.511719 90.566406 C 52.511719 90.777344 52.613281 90.964844 52.800781 91.132812 C 52.992188 91.308594 53.445312 91.464844 54.167969 91.617188 C 55.960938 91.996094 57.25 92.394531 58.019531 92.792969 C 58.796875 93.191406 59.363281 93.675781 59.707031 94.253906 C 60.0625 94.839844 60.242188 95.492188 60.242188 96.210938 C 60.242188 97.0625 60.007812 97.839844 59.542969 98.558594 C 59.074219 99.277344 58.40625 99.820312 57.5625 100.183594 C 56.714844 100.550781 55.648438 100.738281 54.371094 100.738281 C 52.113281 100.738281 50.542969 100.304688 49.675781 99.441406 C 48.820312 98.589844 48.332031 97.496094 48.21875 96.15625 Z M 18.980469 57.875 C 18.8125 58.570312 18.890625 59.378906 19.144531 60.207031 C 19.257812 60.5625 19.402344 60.929688 19.570312 61.269531 C 19.746094 61.625 19.945312 61.980469 20.179688 62.324219 C 20.414062 62.65625 20.671875 62.988281 20.9375 63.273438 C 21.203125 63.5625 21.492188 63.828125 21.78125 64.050781 L 21.792969 64.058594 C 22.515625 64.613281 23.316406 64.988281 24.117188 65.054688 C 25.175781 65.144531 26.71875 64.304688 27.644531 63.695312 L 27.84375 63.5625 L 27.867188 63.550781 C 28.222656 63.320312 28.589844 63.097656 28.957031 62.863281 C 29.167969 62.742188 29.402344 62.710938 29.625 62.765625 C 29.835938 62.808594 30.035156 62.941406 30.15625 63.128906 C 30.191406 63.175781 30.210938 63.21875 30.222656 63.261719 L 30.578125 63.894531 L 30.589844 63.917969 C 31.046875 64.746094 31.503906 65.554688 31.980469 66.363281 C 32.4375 67.136719 32.902344 67.855469 33.371094 68.476562 L 33.382812 68.5 L 33.4375 68.574219 C 33.484375 68.640625 33.558594 68.753906 33.636719 68.851562 L 33.648438 68.875 C 33.9375 69.261719 34.238281 69.671875 34.539062 70.035156 C 34.828125 70.390625 35.128906 70.691406 35.40625 70.890625 C 35.605469 71.023438 35.808594 71.097656 35.996094 71.042969 C 36.21875 70.988281 36.464844 70.800781 36.742188 70.433594 C 36.796875 70.335938 36.863281 70.234375 36.917969 70.148438 L 37.097656 69.859375 L 37.109375 69.847656 C 37.285156 69.570312 37.464844 69.296875 37.597656 69.007812 C 37.699219 68.796875 37.765625 68.574219 37.796875 68.355469 C 37.699219 68.320312 37.5625 68.308594 37.417969 68.300781 L 37.410156 68.300781 C 36.441406 68.1875 35.496094 68.066406 35.183594 66.207031 L 35.183594 66.195312 L 35.152344 65.964844 C 35.117188 65.71875 35.085938 65.542969 35.0625 65.433594 C 35.050781 65.355469 35.027344 65.300781 35.027344 65.277344 L 35.027344 65.289062 C 35.027344 65.300781 35.027344 65.300781 35.027344 65.300781 C 34.949219 65.253906 34.851562 65.210938 34.71875 65.144531 L 34.605469 65.101562 L 34.59375 65.101562 C 34.285156 64.945312 34.027344 64.722656 33.828125 64.449219 C 33.617188 64.160156 33.460938 63.828125 33.359375 63.460938 C 33.261719 63.109375 33.203125 62.710938 33.183594 62.332031 C 33.160156 61.878906 33.171875 61.449219 33.214844 61.082031 L 33.214844 61.0625 C 33.238281 60.90625 33.292969 60.773438 33.371094 60.652344 L 33.394531 60.628906 C 33.484375 60.519531 33.59375 60.417969 33.726562 60.363281 C 33.738281 60.363281 33.75 60.351562 33.761719 60.351562 C 36.464844 59.144531 38.753906 58.527344 40.734375 58.207031 C 42.390625 57.941406 43.824219 57.882812 45.117188 57.875 C 42.4375 56.113281 39.6875 53.292969 37.375 50.148438 C 35.007812 46.925781 33.082031 43.363281 32.148438 40.230469 C 31.523438 42.035156 30.644531 44.226562 29.144531 46.617188 C 27.476562 49.285156 19.445312 55.925781 18.980469 57.875 Z M 42.148438 33.058594 C 41.703125 32.804688 41.546875 32.242188 41.8125 31.796875 C 42.070312 31.355469 42.636719 31.199219 43.082031 31.464844 C 45.5625 32.894531 48.71875 35.925781 51.390625 39.402344 C 53.757812 42.511719 55.761719 45.996094 56.550781 49.074219 C 56.671875 49.574219 56.371094 50.082031 55.871094 50.203125 C 55.371094 50.324219 54.859375 50.027344 54.738281 49.527344 C 54.015625 46.695312 52.132812 43.429688 49.910156 40.507812 C 47.386719 37.210938 44.4375 34.375 42.148438 33.058594 Z M 58.328125 31.011719 C 57.984375 30.636719 58.007812 30.046875 58.382812 29.707031 C 58.761719 29.363281 59.351562 29.382812 59.695312 29.761719 C 60.398438 30.515625 61.097656 31.320312 61.765625 32.164062 C 62.421875 32.980469 63.054688 33.835938 63.65625 34.695312 C 63.945312 35.117188 63.835938 35.695312 63.410156 35.980469 C 62.988281 36.269531 62.410156 36.15625 62.121094 35.738281 C 61.554688 34.90625 60.941406 34.101562 60.320312 33.3125 C 59.664062 32.507812 58.996094 31.730469 58.328125 31.011719 Z M 50.464844 31.90625 C 50.078125 31.566406 50.042969 30.988281 50.386719 30.601562 C 50.734375 30.214844 51.3125 30.179688 51.699219 30.523438 C 53.367188 31.996094 55.125 33.878906 56.714844 35.9375 C 58.21875 37.863281 59.585938 39.953125 60.609375 41.992188 C 60.84375 42.445312 60.652344 43.007812 60.199219 43.230469 C 59.742188 43.460938 59.175781 43.273438 58.953125 42.820312 C 57.984375 40.894531 56.683594 38.914062 55.25 37.066406 C 53.714844 35.09375 52.046875 33.304688 50.464844 31.90625 Z M 36.664062 45.832031 C 37.5625 45.476562 38.453125 45.3125 39.332031 45.410156 C 41.789062 45.675781 43.582031 47.601562 43.371094 50.125 C 43.292969 51.078125 42.957031 52.117188 42.359375 53.257812 C 42.859375 53.734375 43.390625 54.21875 43.96875 54.707031 C 44.792969 55.414062 45.628906 56.035156 46.449219 56.554688 C 47.207031 57.019531 47.964844 57.40625 48.707031 57.683594 C 48.785156 57.671875 48.851562 57.652344 48.917969 57.640625 C 48.988281 57.617188 49.054688 57.585938 49.109375 57.550781 C 49.164062 57.519531 49.21875 57.472656 49.265625 57.417969 C 49.386719 57.175781 49.464844 56.886719 49.507812 56.554688 C 49.554688 56.203125 49.542969 55.804688 49.488281 55.359375 C 49.320312 54.042969 48.753906 52.460938 47.90625 50.765625 C 46.984375 48.90625 45.738281 46.9375 44.335938 45.058594 C 42.96875 43.207031 41.457031 41.449219 39.976562 39.988281 C 38.554688 38.59375 37.164062 37.453125 35.941406 36.757812 L 35.929688 36.746094 C 35.472656 36.492188 35.0625 36.300781 34.683594 36.191406 L 34.660156 36.179688 C 34.328125 36.082031 34.039062 36.046875 33.804688 36.082031 C 33.75 36.09375 33.703125 36.09375 33.671875 36.101562 L 33.660156 36.113281 C 33.636719 36.148438 33.605469 36.203125 33.570312 36.257812 C 33.558594 36.28125 33.539062 36.3125 33.515625 36.367188 L 33.484375 36.433594 L 33.484375 36.480469 C 33.359375 37.210938 33.472656 38.171875 33.78125 39.289062 C 34.105469 40.484375 34.640625 41.847656 35.351562 43.285156 C 35.785156 44.195312 36.21875 45.046875 36.664062 45.832031 Z M 35.074219 65.234375 Z M 45.929688 59.597656 L 45.90625 59.597656 C 43.191406 59.621094 39.789062 59.65625 34.972656 61.722656 C 34.972656 61.914062 34.972656 62.101562 34.984375 62.289062 C 35.007812 62.511719 35.039062 62.730469 35.085938 62.929688 C 35.128906 63.074219 35.171875 63.195312 35.238281 63.296875 C 35.285156 63.375 35.339844 63.429688 35.394531 63.460938 L 35.496094 63.507812 L 35.507812 63.507812 L 35.527344 63.515625 C 36.050781 63.773438 36.320312 63.90625 36.574219 64.304688 L 36.574219 64.3125 C 36.773438 64.636719 36.832031 64.96875 36.929688 65.585938 L 36.941406 65.640625 L 36.941406 65.652344 L 36.976562 65.886719 L 36.976562 65.898438 C 37.0625 66.429688 37.363281 66.460938 37.652344 66.496094 C 39.109375 66.660156 39.621094 67.347656 39.621094 68.230469 C 39.621094 69.027344 39.15625 69.957031 38.597656 70.789062 C 38.53125 70.886719 38.476562 70.988281 38.433594 71.054688 C 38.375 71.132812 38.332031 71.21875 38.277344 71.296875 L 38.253906 71.34375 C 38.242188 71.351562 38.242188 71.363281 38.230469 71.375 C 37.597656 72.273438 36.953125 72.714844 36.308594 72.835938 C 35.640625 72.957031 35.007812 72.738281 34.394531 72.316406 C 33.617188 71.773438 32.9375 70.886719 32.304688 70.035156 L 32.101562 69.769531 L 31.925781 69.539062 L 31.914062 69.515625 C 31.414062 68.851562 30.9375 68.097656 30.457031 67.300781 C 30.011719 66.5625 29.546875 65.730469 29.078125 64.890625 L 29.066406 64.902344 C 28.976562 64.957031 28.878906 65.023438 28.8125 65.066406 L 28.464844 65.289062 L 28.464844 65.300781 C 27.066406 66.21875 25.820312 67.046875 23.929688 66.859375 C 22.78125 66.75 21.671875 66.230469 20.691406 65.476562 C 20.3125 65.1875 19.957031 64.855469 19.636719 64.503906 C 19.300781 64.136719 18.992188 63.75 18.710938 63.339844 C 18.433594 62.929688 18.191406 62.511719 17.976562 62.078125 C 17.765625 61.648438 17.589844 61.191406 17.445312 60.75 L 17.445312 60.738281 C 17.101562 59.609375 17.011719 58.46875 17.246094 57.464844 C 18.257812 53.214844 27.6875 48.652344 31.058594 37.949219 L 31.058594 37.941406 C 31.214844 37.429688 31.359375 36.964844 31.515625 36.546875 C 31.667969 36.125 31.8125 35.757812 31.992188 35.4375 L 32.003906 35.417969 C 32.09375 35.261719 32.171875 35.140625 32.246094 35.027344 C 32.347656 34.90625 32.449219 34.796875 32.582031 34.695312 C 32.714844 34.597656 32.859375 34.53125 33.015625 34.464844 C 33.171875 34.410156 33.339844 34.375 33.539062 34.355469 C 34.015625 34.289062 34.550781 34.34375 35.09375 34.507812 C 35.640625 34.664062 36.207031 34.917969 36.808594 35.25 L 36.832031 35.261719 C 38.175781 36.023438 39.667969 37.230469 41.179688 38.714844 C 42.746094 40.253906 44.328125 42.101562 45.761719 44.039062 C 47.230469 46.03125 48.554688 48.121094 49.53125 50.101562 C 50.433594 51.941406 51.054688 53.679688 51.246094 55.171875 C 51.320312 55.804688 51.332031 56.402344 51.253906 56.941406 C 51.175781 57.472656 51.023438 57.960938 50.777344 58.382812 L 50.765625 58.394531 C 50.054688 59.644531 47.773438 59.621094 46.394531 59.609375 C 46.21875 59.597656 46.0625 59.597656 45.929688 59.597656 Z M 39.976562 118.691406 C 43.179688 118.691406 45.804688 121.257812 45.804688 124.488281 C 45.804688 127.675781 43.226562 130.289062 39.976562 130.289062 C 36.773438 130.289062 34.148438 127.722656 34.148438 124.488281 C 34.160156 121.300781 36.742188 118.691406 39.976562 118.691406 Z M 4.210938 114.285156 L 75.746094 114.285156 L 75.746094 16.125 L 4.210938 16.125 Z M 4.210938 114.285156 "/>
</g>
</svg>
