<?xml version="1.0" encoding="UTF-8"?>
<svg xmlns="http://www.w3.org/2000/svg" xmlns:xlink="http://www.w3.org/1999/xlink" width="80px" height="80px" viewBox="0 0 80 90" version="1.1">
<g id="surface1">
<path style=" stroke:none;fill-rule:nonzero;fill:rgb(0%,0%,0%);fill-opacity:1;" d="M 62.996094 89.453125 C 62.785156 89.558594 62.566406 89.644531 62.339844 89.710938 C 62.097656 89.777344 61.855469 89.820312 61.605469 89.839844 C 61.363281 89.863281 61.117188 89.863281 60.875 89.839844 C 60.628906 89.820312 60.382812 89.785156 60.140625 89.730469 C 59.890625 89.664062 59.644531 89.578125 59.410156 89.46875 C 59.171875 89.359375 58.945312 89.230469 58.734375 89.082031 C 58.53125 88.929688 58.339844 88.761719 58.164062 88.578125 C 57.984375 88.382812 57.824219 88.167969 57.6875 87.941406 L 51.035156 77.074219 L 45.402344 83.648438 C 45.148438 83.949219 44.878906 84.234375 44.597656 84.507812 C 44.3125 84.78125 44.023438 85.027344 43.730469 85.238281 L 43.671875 85.285156 C 43.394531 85.5 43.097656 85.699219 42.792969 85.882812 C 42.503906 86.058594 42.199219 86.210938 41.886719 86.34375 C 41.648438 86.449219 41.40625 86.542969 41.152344 86.613281 C 40.914062 86.6875 40.667969 86.738281 40.421875 86.773438 C 40.164062 86.808594 39.90625 86.824219 39.644531 86.824219 C 39.398438 86.816406 39.152344 86.789062 38.914062 86.742188 C 38.617188 86.6875 38.328125 86.601562 38.046875 86.488281 C 37.773438 86.378906 37.515625 86.238281 37.269531 86.070312 C 37.027344 85.90625 36.804688 85.714844 36.597656 85.503906 C 36.394531 85.273438 36.210938 85.03125 36.046875 84.773438 L 35.96875 84.625 L 35.902344 84.472656 L 34.957031 81.925781 L 34.957031 81.800781 L 29.96875 31.722656 C 29.917969 31.402344 29.917969 31.074219 29.96875 30.75 C 30.023438 30.433594 30.132812 30.125 30.28125 29.839844 C 30.523438 29.382812 30.875 28.996094 31.300781 28.707031 C 31.503906 28.566406 31.726562 28.453125 31.960938 28.371094 C 32.195312 28.285156 32.441406 28.222656 32.691406 28.195312 C 33.007812 28.160156 33.328125 28.171875 33.636719 28.230469 C 33.957031 28.296875 34.265625 28.402344 34.554688 28.554688 L 34.773438 28.671875 C 44.667969 35.125 53.890625 41.128906 63.078125 47.109375 L 76.996094 56.160156 C 77.25 56.320312 77.496094 56.496094 77.730469 56.683594 C 77.941406 56.851562 78.140625 57.027344 78.328125 57.21875 L 78.375 57.269531 C 78.5625 57.457031 78.734375 57.65625 78.894531 57.867188 C 79.050781 58.066406 79.191406 58.28125 79.3125 58.503906 C 79.460938 58.769531 79.589844 59.046875 79.683594 59.335938 C 79.777344 59.613281 79.84375 59.898438 79.875 60.191406 C 79.910156 60.484375 79.910156 60.78125 79.875 61.074219 C 79.847656 61.367188 79.789062 61.660156 79.707031 61.941406 C 79.554688 62.433594 79.320312 62.898438 79.019531 63.316406 C 78.871094 63.53125 78.707031 63.734375 78.527344 63.921875 C 78.339844 64.121094 78.140625 64.308594 77.925781 64.476562 C 77.65625 64.699219 77.375 64.902344 77.078125 65.082031 C 76.761719 65.273438 76.433594 65.441406 76.09375 65.59375 C 75.75 65.746094 75.363281 65.894531 75.027344 66.019531 C 74.652344 66.144531 74.273438 66.25 73.890625 66.332031 C 71.863281 66.726562 69.839844 67.214844 67.832031 67.699219 L 65.453125 68.261719 L 72.042969 79.171875 C 72.179688 79.402344 72.292969 79.648438 72.382812 79.902344 C 72.648438 80.65625 72.6875 81.46875 72.492188 82.246094 L 72.492188 82.316406 C 72.433594 82.554688 72.351562 82.785156 72.25 83.003906 C 72.144531 83.230469 72.019531 83.449219 71.875 83.65625 C 71.730469 83.867188 71.5625 84.066406 71.378906 84.246094 C 71.191406 84.425781 70.992188 84.589844 70.777344 84.734375 L 69.3125 85.675781 C 67.285156 87.0625 65.175781 88.324219 62.996094 89.453125 Z M 27.566406 14.34375 C 28.292969 15.730469 27.792969 17.441406 26.433594 18.226562 C 25.074219 19.007812 23.339844 18.585938 22.496094 17.261719 L 16.636719 7.039062 C 15.945312 5.660156 16.453125 3.980469 17.789062 3.207031 C 19.128906 2.4375 20.839844 2.835938 21.699219 4.117188 L 27.601562 14.34375 Z M 16.578125 48.5 C 17.960938 47.8125 19.644531 48.316406 20.417969 49.648438 C 21.195312 50.984375 20.792969 52.691406 19.507812 53.542969 L 9.25 59.429688 C 7.867188 60.117188 6.183594 59.613281 5.410156 58.277344 C 4.636719 56.945312 5.035156 55.238281 6.320312 54.382812 Z M 15.0625 29.226562 C 16.558594 29.695312 17.417969 31.257812 17.011719 32.769531 C 16.605469 34.28125 15.078125 35.203125 13.542969 34.863281 L 2.199219 31.796875 C 0.753906 31.296875 -0.0664062 29.777344 0.316406 28.300781 C 0.703125 26.828125 2.15625 25.894531 3.664062 26.160156 L 15.039062 29.226562 Z M 60.066406 30.195312 C 58.683594 30.882812 57 30.378906 56.226562 29.046875 C 55.449219 27.710938 55.851562 26.003906 57.136719 25.152344 L 67.394531 19.265625 C 68.777344 18.578125 70.460938 19.082031 71.234375 20.414062 C 72.011719 21.75 71.609375 23.457031 70.324219 24.3125 Z M 46.488281 15.152344 C 46.277344 16.226562 45.488281 17.09375 44.4375 17.398438 C 43.382812 17.707031 42.25 17.40625 41.492188 16.617188 C 40.734375 15.828125 40.484375 14.679688 40.839844 13.648438 L 43.855469 2.320312 C 44.355469 0.882812 45.882812 0.0664062 47.359375 0.449219 C 48.839844 0.828125 49.777344 2.28125 49.511719 3.78125 Z M 61.261719 85.523438 L 68.34375 81.246094 C 65.871094 77.140625 61.863281 71.347656 59.914062 67.246094 C 59.878906 67.160156 59.847656 67.070312 59.824219 66.980469 C 59.613281 66.039062 60.207031 65.101562 61.152344 64.886719 C 65.09375 63.988281 69.121094 63.140625 73.035156 62.160156 C 73.484375 62.0625 73.925781 61.917969 74.351562 61.738281 C 74.691406 61.589844 75.011719 61.402344 75.304688 61.175781 C 75.40625 61.089844 75.496094 61 75.582031 60.898438 C 75.625 60.847656 75.660156 60.785156 75.683594 60.722656 L 75.640625 60.59375 C 75.554688 60.445312 75.445312 60.316406 75.320312 60.203125 C 75.128906 60.035156 74.925781 59.878906 74.710938 59.746094 L 34.472656 33.542969 C 36.019531 49.140625 38.28125 65.746094 39.199219 81.238281 C 39.222656 81.484375 39.265625 81.726562 39.328125 81.96875 C 39.375 82.125 39.4375 82.277344 39.519531 82.421875 L 39.617188 82.523438 C 39.6875 82.53125 39.757812 82.53125 39.828125 82.523438 C 39.957031 82.492188 40.082031 82.453125 40.203125 82.398438 C 40.539062 82.25 40.851562 82.054688 41.140625 81.820312 C 41.496094 81.527344 41.828125 81.203125 42.128906 80.851562 C 43.542969 79.191406 49.160156 71.984375 50.480469 71.226562 C 51.308594 70.734375 52.382812 71 52.882812 71.824219 L 61.261719 85.515625 Z M 61.261719 85.523438 "/>
</g>
</svg>
