<?xml version="1.0" encoding="UTF-8"?>
<svg xmlns="http://www.w3.org/2000/svg" xmlns:xlink="http://www.w3.org/1999/xlink" width="80px" height="80px" viewBox="0 0 80 84" version="1.1">
<g id="surface1">
<path style=" stroke:none;fill-rule:nonzero;fill:rgb(0%,0%,0%);fill-opacity:1;" d="M 51.550781 74.476562 C 51.296875 75.800781 50.847656 77.015625 50.199219 78.125 C 49.53125 79.265625 48.65625 80.296875 47.582031 81.195312 C 46.5 82.097656 45.328125 82.78125 44.054688 83.238281 C 42.78125 83.695312 41.429688 83.917969 40.003906 83.917969 C 38.570312 83.917969 37.21875 83.6875 35.953125 83.238281 C 34.683594 82.78125 33.507812 82.105469 32.429688 81.195312 C 31.347656 80.289062 30.480469 79.265625 29.8125 78.125 C 29.144531 76.988281 28.691406 75.730469 28.441406 74.355469 C 28.316406 73.683594 28.773438 73.042969 29.449219 72.921875 C 29.46875 72.921875 29.667969 72.902344 29.667969 72.902344 L 50.351562 72.902344 C 51.042969 72.902344 51.605469 73.453125 51.605469 74.140625 C 51.597656 74.257812 51.578125 74.367188 51.550781 74.476562 Z M 13.925781 0.25 C 15.1875 -0.246094 16.613281 0.367188 17.113281 1.617188 C 17.617188 2.863281 16.996094 4.277344 15.738281 4.773438 C 13.007812 5.851562 10.722656 7.347656 8.894531 9.285156 C 7.074219 11.222656 5.703125 13.625 4.808594 16.511719 C 4.410156 17.792969 3.03125 18.515625 1.734375 18.121094 C 0.441406 17.722656 -0.289062 16.359375 0.109375 15.078125 C 1.234375 11.460938 2.96875 8.433594 5.292969 5.960938 C 7.613281 3.5 10.5 1.601562 13.925781 0.25 Z M 64.261719 4.773438 C 63.003906 4.277344 62.382812 2.863281 62.886719 1.617188 C 63.386719 0.367188 64.8125 -0.246094 66.074219 0.25 C 69.5 1.601562 72.386719 3.5 74.707031 5.96875 C 77.03125 8.445312 78.773438 11.476562 79.890625 15.085938 C 80.289062 16.367188 79.558594 17.730469 78.265625 18.128906 C 76.96875 18.523438 75.589844 17.800781 75.191406 16.515625 C 74.296875 13.625 72.925781 11.222656 71.105469 9.292969 C 69.277344 7.347656 66.992188 5.851562 64.261719 4.773438 Z M 46.589844 7.273438 C 47.601562 7.53125 48.589844 7.851562 49.546875 8.226562 C 50.953125 8.78125 52.300781 9.441406 53.597656 10.210938 C 53.644531 10.246094 53.699219 10.273438 53.75 10.308594 C 54.988281 11.066406 56.148438 11.898438 57.207031 12.796875 C 58.324219 13.746094 59.359375 14.789062 60.320312 15.9375 L 60.328125 15.945312 C 61.273438 17.070312 62.113281 18.277344 62.859375 19.554688 C 63.601562 20.835938 64.242188 22.171875 64.773438 23.550781 C 65.316406 24.976562 65.722656 26.429688 66 27.925781 C 66.269531 29.425781 66.40625 30.960938 66.40625 32.535156 C 66.40625 35.648438 66.40625 37.332031 66.40625 37.539062 C 66.414062 39.132812 66.417969 40.695312 66.433594 42.21875 L 66.433594 42.230469 C 66.441406 43.609375 66.53125 44.996094 66.703125 46.378906 C 66.875 47.75 67.121094 49.074219 67.445312 50.351562 C 67.769531 51.605469 68.210938 52.820312 68.753906 53.980469 C 69.320312 55.175781 70.007812 56.347656 70.816406 57.488281 L 70.824219 57.488281 C 71.621094 58.605469 72.621094 59.71875 73.820312 60.808594 C 75.058594 61.9375 76.492188 63.046875 78.132812 64.125 C 79.070312 64.746094 79.324219 66.007812 78.691406 66.9375 C 78.296875 67.515625 77.652344 67.839844 76.988281 67.839844 L 76.988281 67.84375 L 3.011719 67.84375 C 1.875 67.84375 0.957031 66.9375 0.957031 65.8125 C 0.957031 65.074219 1.355469 64.425781 1.949219 64.070312 C 3.609375 62.960938 5.035156 61.855469 6.230469 60.761719 C 7.414062 59.679688 8.40625 58.566406 9.203125 57.417969 C 9.226562 57.386719 9.253906 57.351562 9.28125 57.324219 C 10.050781 56.203125 10.714844 55.066406 11.257812 53.90625 C 11.816406 52.726562 12.265625 51.511719 12.59375 50.261719 C 12.601562 50.234375 12.609375 50.207031 12.617188 50.1875 C 12.933594 48.972656 13.171875 47.691406 13.339844 46.347656 C 13.503906 44.996094 13.59375 43.597656 13.59375 42.15625 L 13.59375 32.535156 C 13.59375 30.988281 13.730469 29.453125 14.015625 27.917969 C 14.296875 26.390625 14.703125 24.921875 15.246094 23.523438 C 15.785156 22.125 16.433594 20.78125 17.183594 19.5 C 17.929688 18.222656 18.78125 17.015625 19.738281 15.867188 L 19.753906 15.855469 C 20.703125 14.730469 21.75 13.679688 22.886719 12.714844 C 24.011719 11.769531 25.222656 10.902344 26.527344 10.128906 C 27.84375 9.351562 29.207031 8.699219 30.613281 8.164062 C 31.589844 7.796875 32.605469 7.492188 33.636719 7.238281 C 33.988281 6.015625 34.59375 5.027344 35.457031 4.269531 C 36.640625 3.226562 38.199219 2.707031 40.132812 2.726562 C 42.050781 2.742188 43.601562 3.265625 44.769531 4.3125 C 45.625 5.074219 46.238281 6.058594 46.589844 7.273438 Z M 48.058594 12 C 46.921875 11.558594 45.761719 11.207031 44.585938 10.957031 C 43.675781 10.839844 42.933594 10.128906 42.816406 9.1875 C 42.703125 8.300781 42.449219 7.679688 42.042969 7.328125 C 41.636719 6.972656 40.988281 6.789062 40.101562 6.78125 C 39.210938 6.773438 38.570312 6.945312 38.175781 7.292969 C 37.777344 7.648438 37.523438 8.273438 37.417969 9.175781 C 37.324219 10.035156 36.667969 10.773438 35.757812 10.9375 C 34.484375 11.175781 33.25 11.515625 32.058594 11.964844 C 30.867188 12.410156 29.730469 12.960938 28.628906 13.609375 C 27.53125 14.257812 26.507812 14.988281 25.554688 15.800781 C 24.605469 16.605469 23.714844 17.492188 22.902344 18.460938 C 22.101562 19.417969 21.386719 20.445312 20.746094 21.539062 C 20.117188 22.617188 19.566406 23.761719 19.097656 24.976562 C 18.628906 26.183594 18.285156 27.414062 18.058594 28.640625 C 17.832031 29.875 17.722656 31.179688 17.722656 32.542969 L 17.722656 42.164062 C 17.722656 43.761719 17.625 45.316406 17.4375 46.84375 C 17.253906 48.3125 16.976562 49.769531 16.597656 51.210938 C 16.589844 51.246094 16.585938 51.273438 16.578125 51.304688 C 16.183594 52.773438 15.652344 54.210938 14.984375 55.632812 C 14.339844 57.003906 13.566406 58.332031 12.675781 59.625 C 12.648438 59.664062 12.621094 59.707031 12.59375 59.746094 C 11.65625 61.082031 10.464844 62.414062 9.027344 63.738281 L 8.972656 63.785156 L 71.027344 63.785156 C 69.625 62.503906 68.4375 61.179688 67.472656 59.828125 L 67.472656 59.820312 C 66.53125 58.484375 65.722656 57.113281 65.054688 55.707031 C 64.375 54.273438 63.851562 52.820312 63.472656 51.359375 L 63.472656 51.355469 C 63.097656 49.902344 62.816406 48.40625 62.628906 46.878906 C 62.449219 45.417969 62.355469 43.875 62.347656 42.257812 L 62.347656 42.253906 C 62.335938 40.746094 62.328125 39.175781 62.320312 37.539062 C 62.304688 34.507812 62.304688 32.859375 62.304688 32.535156 C 62.304688 31.199219 62.195312 29.894531 61.960938 28.632812 C 61.734375 27.378906 61.398438 26.164062 60.949219 24.992188 L 60.949219 24.984375 C 60.488281 23.777344 59.941406 22.636719 59.324219 21.566406 C 58.703125 20.496094 57.988281 19.476562 57.179688 18.507812 C 56.382812 17.5625 55.507812 16.679688 54.554688 15.867188 C 53.632812 15.085938 52.652344 14.382812 51.625 13.746094 C 51.578125 13.726562 51.539062 13.699219 51.488281 13.671875 C 50.371094 13.023438 49.230469 12.464844 48.058594 12 Z M 48.058594 12 "/>
</g>
</svg>
