<?xml version="1.0" encoding="UTF-8"?>
<svg xmlns="http://www.w3.org/2000/svg" xmlns:xlink="http://www.w3.org/1999/xlink" width="80px" height="80px" viewBox="0 0 80 59" version="1.1">
<g id="surface1">
<path style=" stroke:none;fill-rule:evenodd;fill:rgb(0%,0%,0%);fill-opacity:1;" d="M 30.554688 15.402344 C 30.46875 15.777344 30.507812 16.210938 30.644531 16.652344 C 30.703125 16.847656 30.78125 17.035156 30.871094 17.222656 C 30.964844 17.417969 31.074219 17.605469 31.203125 17.789062 C 31.328125 17.972656 31.464844 18.144531 31.613281 18.300781 C 31.757812 18.457031 31.914062 18.601562 32.070312 18.71875 L 32.078125 18.722656 C 32.460938 19.023438 32.890625 19.222656 33.328125 19.261719 C 33.894531 19.3125 34.726562 18.859375 35.222656 18.527344 L 35.332031 18.457031 L 35.34375 18.449219 C 35.539062 18.320312 35.734375 18.203125 35.925781 18.082031 C 36.035156 18.015625 36.164062 17.996094 36.28125 18.023438 C 36.398438 18.046875 36.503906 18.121094 36.570312 18.21875 C 36.589844 18.242188 36.601562 18.261719 36.609375 18.289062 L 36.796875 18.625 L 36.804688 18.632812 C 37.050781 19.082031 37.292969 19.515625 37.550781 19.945312 C 37.800781 20.359375 38.046875 20.742188 38.300781 21.078125 L 38.308594 21.085938 L 38.332031 21.125 C 38.359375 21.164062 38.398438 21.214844 38.445312 21.273438 L 38.449219 21.28125 C 38.605469 21.488281 38.761719 21.707031 38.925781 21.902344 C 39.082031 22.09375 39.246094 22.253906 39.394531 22.363281 C 39.5 22.4375 39.609375 22.476562 39.714844 22.449219 C 39.832031 22.421875 39.960938 22.320312 40.109375 22.117188 C 40.144531 22.066406 40.175781 22.015625 40.207031 21.960938 L 40.304688 21.8125 L 40.3125 21.804688 C 40.410156 21.65625 40.507812 21.507812 40.578125 21.351562 C 40.632812 21.242188 40.671875 21.125 40.683594 21 C 40.625 20.988281 40.554688 20.976562 40.480469 20.96875 L 40.476562 20.96875 C 39.953125 20.902344 39.445312 20.847656 39.277344 19.847656 L 39.277344 19.839844 L 39.257812 19.714844 C 39.238281 19.585938 39.226562 19.488281 39.210938 19.429688 C 39.207031 19.390625 39.199219 19.359375 39.191406 19.347656 L 39.191406 19.351562 C 39.191406 19.359375 39.191406 19.359375 39.191406 19.359375 C 39.148438 19.332031 39.09375 19.308594 39.03125 19.273438 L 38.972656 19.25 L 38.964844 19.25 C 38.796875 19.164062 38.660156 19.046875 38.554688 18.898438 C 38.4375 18.742188 38.359375 18.5625 38.308594 18.367188 C 38.253906 18.171875 38.222656 17.964844 38.210938 17.757812 C 38.195312 17.515625 38.203125 17.28125 38.230469 17.082031 L 38.230469 17.074219 C 38.242188 16.992188 38.269531 16.917969 38.3125 16.855469 L 38.320312 16.839844 C 38.367188 16.78125 38.429688 16.730469 38.503906 16.699219 C 38.507812 16.699219 38.515625 16.691406 38.523438 16.691406 C 39.972656 16.042969 41.203125 15.710938 42.265625 15.535156 C 43.152344 15.394531 43.925781 15.367188 44.621094 15.363281 C 43.183594 14.414062 41.710938 12.902344 40.46875 11.207031 C 39.191406 9.476562 38.164062 7.554688 37.664062 5.875 C 37.332031 6.847656 36.855469 8.023438 36.046875 9.308594 C 35.109375 10.773438 30.792969 14.347656 30.554688 15.402344 Z M 14.894531 37.796875 L 65.105469 37.796875 L 65.105469 50.070312 L 14.894531 50.070312 Z M 34.601562 46.117188 L 32.316406 46.117188 L 31.992188 47.1875 L 29.933594 47.1875 L 32.390625 40.683594 L 34.597656 40.683594 L 37.042969 47.1875 L 34.933594 47.1875 Z M 34.179688 44.707031 L 33.46875 42.371094 L 32.753906 44.707031 Z M 37.570312 40.679688 L 40.566406 40.679688 C 41.160156 40.679688 41.632812 40.757812 42 40.917969 C 42.363281 41.082031 42.664062 41.308594 42.902344 41.605469 C 43.136719 41.90625 43.3125 42.253906 43.417969 42.652344 C 43.527344 43.046875 43.582031 43.46875 43.582031 43.910156 C 43.582031 44.605469 43.503906 45.144531 43.339844 45.527344 C 43.183594 45.910156 42.960938 46.226562 42.675781 46.488281 C 42.394531 46.746094 42.089844 46.914062 41.765625 47.007812 C 41.320312 47.125 40.925781 47.179688 40.558594 47.179688 L 37.566406 47.179688 L 37.566406 40.679688 Z M 39.582031 42.152344 L 39.582031 45.703125 L 40.078125 45.703125 C 40.5 45.703125 40.800781 45.65625 40.984375 45.566406 C 41.160156 45.476562 41.300781 45.3125 41.398438 45.078125 C 41.503906 44.84375 41.550781 44.46875 41.550781 43.949219 C 41.550781 43.261719 41.4375 42.789062 41.210938 42.535156 C 40.984375 42.28125 40.613281 42.152344 40.085938 42.152344 Z M 44.148438 45.035156 L 46.0625 44.917969 C 46.101562 45.226562 46.183594 45.460938 46.316406 45.625 C 46.523438 45.882812 46.816406 46.019531 47.207031 46.019531 C 47.492188 46.019531 47.714844 45.953125 47.871094 45.820312 C 48.027344 45.683594 48.105469 45.527344 48.105469 45.351562 C 48.105469 45.183594 48.035156 45.035156 47.882812 44.898438 C 47.734375 44.761719 47.394531 44.636719 46.855469 44.519531 C 45.96875 44.324219 45.34375 44.058594 44.96875 43.730469 C 44.589844 43.40625 44.394531 42.984375 44.394531 42.476562 C 44.394531 42.144531 44.492188 41.828125 44.6875 41.527344 C 44.882812 41.230469 45.175781 40.996094 45.566406 40.828125 C 45.957031 40.660156 46.492188 40.574219 47.167969 40.574219 C 48 40.574219 48.640625 40.730469 49.074219 41.042969 C 49.511719 41.355469 49.773438 41.839844 49.855469 42.523438 L 47.960938 42.632812 C 47.910156 42.339844 47.804688 42.121094 47.644531 41.988281 C 47.480469 41.851562 47.257812 41.789062 46.972656 41.789062 C 46.738281 41.789062 46.5625 41.839844 46.445312 41.9375 C 46.328125 42.035156 46.269531 42.160156 46.269531 42.300781 C 46.269531 42.40625 46.316406 42.496094 46.414062 42.582031 C 46.503906 42.664062 46.730469 42.742188 47.082031 42.820312 C 47.960938 43.007812 48.59375 43.203125 48.972656 43.398438 C 49.355469 43.59375 49.628906 43.832031 49.804688 44.117188 C 49.980469 44.402344 50.066406 44.726562 50.066406 45.078125 C 50.066406 45.496094 49.949219 45.878906 49.71875 46.234375 C 49.484375 46.585938 49.167969 46.851562 48.75 47.03125 C 48.332031 47.214844 47.8125 47.304688 47.179688 47.304688 C 46.074219 47.304688 45.304688 47.089844 44.875 46.667969 C 44.445312 46.234375 44.207031 45.6875 44.148438 45.035156 Z M 14.894531 26.246094 L 42.882812 26.246094 L 42.882812 27.574219 L 14.894531 27.574219 Z M 14.894531 30.101562 L 65.105469 30.101562 L 65.105469 31.429688 L 14.894531 31.429688 Z M 14.894531 33.949219 L 65.105469 33.949219 L 65.105469 35.277344 L 14.894531 35.277344 Z M 1.652344 55.59375 L 9.851562 55.59375 C 9.246094 55.4375 8.789062 54.878906 8.789062 54.230469 L 8.789062 14.53125 C 8.789062 13.757812 9.425781 13.121094 10.203125 13.121094 L 26.398438 13.121094 L 26.867188 15.90625 L 11.785156 15.90625 L 11.785156 53.257812 L 68.054688 53.257812 L 68.054688 15.90625 L 53.46875 15.90625 L 54.1875 13.121094 L 69.425781 13.121094 C 70.207031 13.121094 70.839844 13.757812 70.839844 14.53125 L 70.839844 54.222656 C 70.839844 54.878906 70.390625 55.429688 69.777344 55.585938 L 78.347656 55.585938 C 79.257812 55.585938 80 56.324219 80 57.234375 C 80 58.144531 79.257812 58.882812 78.347656 58.882812 L 1.652344 58.882812 C 0.742188 58.882812 0 58.144531 0 57.234375 C 0 56.332031 0.742188 55.59375 1.652344 55.59375 Z M 37.675781 56.207031 L 42.324219 56.207031 C 42.761719 56.207031 43.117188 56.566406 43.117188 57 C 43.117188 57.4375 42.761719 57.792969 42.324219 57.792969 L 37.675781 57.792969 C 37.238281 57.792969 36.882812 57.4375 36.882812 57 C 36.882812 56.558594 37.238281 56.207031 37.675781 56.207031 Z M 42.988281 2.050781 C 42.746094 1.914062 42.667969 1.609375 42.804688 1.371094 C 42.941406 1.128906 43.25 1.050781 43.488281 1.1875 C 44.816406 1.953125 46.515625 3.582031 47.949219 5.457031 C 49.226562 7.125 50.292969 9.007812 50.714844 10.664062 C 50.78125 10.929688 50.625 11.203125 50.351562 11.273438 C 50.085938 11.339844 49.8125 11.183594 49.738281 10.910156 C 49.347656 9.382812 48.347656 7.632812 47.148438 6.0625 C 45.800781 4.289062 44.210938 2.757812 42.988281 2.050781 Z M 51.671875 0.953125 C 51.484375 0.753906 51.496094 0.433594 51.707031 0.246094 C 51.90625 0.0585938 52.226562 0.0703125 52.414062 0.28125 C 52.792969 0.6875 53.164062 1.117188 53.527344 1.570312 C 53.878906 2.011719 54.21875 2.464844 54.542969 2.933594 C 54.699219 3.160156 54.640625 3.472656 54.414062 3.628906 C 54.1875 3.785156 53.875 3.726562 53.71875 3.5 C 53.398438 3.050781 53.074219 2.609375 52.734375 2.1875 C 52.390625 1.757812 52.03125 1.34375 51.671875 0.953125 Z M 47.449219 1.433594 C 47.238281 1.253906 47.21875 0.933594 47.402344 0.734375 C 47.585938 0.527344 47.902344 0.507812 48.105469 0.6875 C 49.003906 1.480469 49.941406 2.492188 50.800781 3.597656 C 51.609375 4.632812 52.335938 5.757812 52.890625 6.855469 C 53.015625 7.101562 52.917969 7.398438 52.667969 7.523438 C 52.421875 7.644531 52.121094 7.546875 52 7.300781 C 51.476562 6.269531 50.78125 5.199219 50.011719 4.207031 C 49.191406 3.148438 48.292969 2.1875 47.449219 1.433594 Z M 40.039062 8.925781 C 40.519531 8.730469 41.003906 8.644531 41.472656 8.695312 C 42.792969 8.839844 43.75 9.878906 43.640625 11.226562 C 43.601562 11.742188 43.417969 12.296875 43.09375 12.914062 C 43.359375 13.175781 43.644531 13.433594 43.957031 13.695312 C 44.402344 14.078125 44.84375 14.40625 45.292969 14.6875 C 45.695312 14.941406 46.105469 15.140625 46.511719 15.289062 C 46.550781 15.285156 46.589844 15.277344 46.621094 15.265625 C 46.660156 15.25 46.691406 15.230469 46.726562 15.210938 C 46.75 15.191406 46.785156 15.171875 46.808594 15.140625 C 46.875 15.011719 46.921875 14.855469 46.941406 14.679688 C 46.960938 14.484375 46.960938 14.273438 46.925781 14.039062 C 46.835938 13.332031 46.53125 12.472656 46.082031 11.566406 C 45.585938 10.566406 44.914062 9.507812 44.167969 8.496094 C 43.429688 7.503906 42.625 6.554688 41.824219 5.769531 C 41.0625 5.015625 40.3125 4.40625 39.65625 4.03125 L 39.648438 4.03125 C 39.40625 3.894531 39.179688 3.789062 38.976562 3.730469 L 38.964844 3.726562 C 38.789062 3.671875 38.632812 3.652344 38.503906 3.671875 C 38.46875 3.679688 38.449219 3.679688 38.429688 3.6875 L 38.425781 3.691406 C 38.410156 3.71875 38.390625 3.746094 38.378906 3.769531 C 38.371094 3.785156 38.359375 3.804688 38.347656 3.828125 L 38.328125 3.867188 L 38.328125 3.886719 C 38.261719 4.277344 38.328125 4.796875 38.484375 5.398438 C 38.660156 6.042969 38.945312 6.777344 39.324219 7.546875 C 39.5625 8.042969 39.804688 8.496094 40.039062 8.925781 Z M 39.1875 19.351562 Z M 45.011719 16.324219 L 45 16.324219 C 43.542969 16.335938 41.71875 16.355469 39.132812 17.464844 C 39.132812 17.5625 39.132812 17.664062 39.140625 17.769531 C 39.148438 17.894531 39.167969 18.007812 39.199219 18.113281 C 39.226562 18.191406 39.25 18.257812 39.285156 18.308594 C 39.308594 18.347656 39.335938 18.378906 39.367188 18.394531 L 39.421875 18.417969 L 39.425781 18.417969 L 39.441406 18.425781 C 39.71875 18.5625 39.863281 18.632812 40 18.847656 L 40 18.851562 C 40.105469 19.023438 40.136719 19.203125 40.1875 19.535156 L 40.195312 19.566406 L 40.195312 19.574219 L 40.214844 19.695312 L 40.214844 19.703125 C 40.265625 19.988281 40.421875 20.007812 40.578125 20.027344 C 41.359375 20.117188 41.640625 20.480469 41.632812 20.960938 C 41.632812 21.390625 41.378906 21.890625 41.085938 22.339844 C 41.054688 22.390625 41.023438 22.441406 40.996094 22.480469 C 40.96875 22.527344 40.9375 22.570312 40.910156 22.609375 L 40.898438 22.628906 C 40.890625 22.636719 40.890625 22.644531 40.886719 22.648438 C 40.546875 23.128906 40.203125 23.371094 39.851562 23.433594 C 39.492188 23.5 39.152344 23.382812 38.820312 23.15625 C 38.40625 22.863281 38.039062 22.382812 37.703125 21.929688 L 37.648438 21.859375 L 37.597656 21.785156 L 37.507812 21.664062 L 37.5 21.652344 C 37.234375 21.292969 36.972656 20.882812 36.71875 20.457031 C 36.476562 20.054688 36.230469 19.613281 35.976562 19.160156 L 35.96875 19.164062 C 35.917969 19.199219 35.867188 19.230469 35.832031 19.253906 L 35.652344 19.378906 L 35.636719 19.386719 C 34.882812 19.878906 34.21875 20.328125 33.203125 20.222656 C 32.585938 20.164062 31.992188 19.886719 31.472656 19.476562 C 31.269531 19.320312 31.082031 19.144531 30.90625 18.949219 C 30.722656 18.757812 30.558594 18.546875 30.402344 18.328125 C 30.253906 18.105469 30.125 17.878906 30.007812 17.644531 C 29.894531 17.414062 29.796875 17.171875 29.71875 16.933594 L 29.71875 16.925781 C 29.539062 16.324219 29.484375 15.707031 29.617188 15.167969 C 30.15625 12.875 35.222656 10.429688 37.03125 4.671875 L 37.03125 4.667969 C 37.117188 4.394531 37.195312 4.148438 37.277344 3.914062 C 37.355469 3.6875 37.441406 3.484375 37.53125 3.316406 L 37.539062 3.308594 C 37.585938 3.226562 37.625 3.160156 37.667969 3.101562 C 37.722656 3.039062 37.78125 2.980469 37.851562 2.925781 C 37.921875 2.875 38 2.835938 38.085938 2.804688 C 38.171875 2.777344 38.261719 2.757812 38.367188 2.746094 C 38.625 2.714844 38.90625 2.738281 39.207031 2.824219 C 39.5 2.90625 39.804688 3.042969 40.125 3.226562 L 40.128906 3.230469 C 40.851562 3.640625 41.652344 4.296875 42.46875 5.089844 C 43.308594 5.917969 44.160156 6.90625 44.929688 7.949219 C 45.714844 9.019531 46.425781 10.144531 46.953125 11.214844 C 47.441406 12.203125 47.765625 13.136719 47.871094 13.941406 C 47.917969 14.277344 47.917969 14.597656 47.878906 14.886719 C 47.839844 15.171875 47.753906 15.433594 47.617188 15.660156 L 47.609375 15.667969 C 47.226562 16.34375 46.003906 16.328125 45.261719 16.324219 C 45.167969 16.324219 45.085938 16.324219 45.011719 16.324219 Z M 45.011719 16.324219 "/>
</g>
</svg>
