<?xml version="1.0" encoding="UTF-8"?>
<svg xmlns="http://www.w3.org/2000/svg" xmlns:xlink="http://www.w3.org/1999/xlink" width="80px" height="80px" viewBox="0 0 80 114" version="1.1">
<g id="surface1">
<path style=" stroke:none;fill-rule:nonzero;fill:rgb(0%,0%,0%);fill-opacity:1;" d="M 76.390625 113.792969 C 75.984375 111.886719 75.472656 110.242188 74.871094 108.820312 C 72.261719 102.699219 65.769531 99.910156 59.394531 97.171875 C 58.320312 96.710938 57.242188 96.25 56.109375 95.730469 C 55.960938 95.914062 55.824219 96.089844 55.664062 96.265625 C 54.792969 97.339844 53.761719 98.28125 52.621094 99.113281 C 49.449219 101.398438 45.367188 102.710938 41.15625 102.914062 C 36.953125 103.117188 32.609375 102.230469 28.898438 100.113281 C 27.054688 99.058594 25.363281 97.699219 23.925781 96.027344 C 22.90625 96.515625 21.859375 96.988281 20.78125 97.476562 C 14.660156 100.261719 7.746094 103.402344 5.222656 108.632812 C 4.628906 109.875 4.15625 111.242188 3.824219 112.71875 C 3.738281 113.070312 3.675781 113.421875 3.609375 113.785156 L 0 113.785156 C 0.101562 113.15625 0.222656 112.542969 0.351562 111.945312 C 0.75 110.207031 1.300781 108.597656 2.023438 107.109375 C 5.113281 100.710938 12.636719 97.292969 19.304688 94.261719 C 20.789062 93.585938 22.230469 92.9375 23.519531 92.292969 C 24.398438 91.136719 25.125 89.898438 25.679688 88.566406 C 26.164062 87.429688 26.515625 86.226562 26.757812 84.960938 C 25.410156 84.15625 24.113281 83.222656 22.886719 82.140625 C 17.886719 77.714844 14.390625 74.109375 12.136719 69.933594 C 9.84375 65.699219 8.886719 60.992188 9.007812 54.457031 L 9.371094 35.535156 C 9.371094 35.332031 9.40625 35.140625 9.472656 34.964844 L 5.046875 33.578125 C 4.417969 19.628906 12.515625 11.289062 22.554688 7.277344 C 26.207031 5.816406 20.085938 -2.160156 28.5 0.902344 C 39.734375 4.996094 64.664062 10.570312 70.566406 17.605469 C 75.359375 23.316406 75.554688 26.414062 75.445312 33.863281 C 75.40625 36.285156 75.035156 38.402344 73.914062 39.195312 C 73.394531 39.558594 72.78125 39.707031 72.058594 39.640625 L 72.058594 55.824219 C 72.058594 64.792969 68.839844 72.28125 63.902344 77.824219 C 61.121094 80.949219 57.789062 83.464844 54.179688 85.265625 C 54.394531 86.421875 54.691406 87.523438 55.070312 88.566406 C 55.527344 89.816406 56.101562 91.015625 56.804688 92.152344 C 58.023438 92.71875 59.414062 93.308594 60.804688 93.910156 C 67.828125 96.921875 74.972656 99.992188 78.144531 107.433594 C 78.878906 109.144531 79.480469 111.121094 79.945312 113.421875 L 80.019531 113.773438 Z M 32.445312 68.136719 C 31.617188 68.675781 31.386719 69.765625 31.925781 70.589844 C 32.460938 71.410156 33.558594 71.640625 34.382812 71.105469 C 36.40625 69.792969 38.351562 69.082031 40.199219 69.0625 C 41.988281 69.035156 43.761719 69.671875 45.515625 71.023438 C 46.292969 71.625 47.40625 71.484375 48.011719 70.707031 C 48.613281 69.933594 48.476562 68.824219 47.695312 68.222656 C 45.285156 66.355469 42.769531 65.496094 40.152344 65.523438 C 37.59375 65.558594 35.023438 66.464844 32.445312 68.136719 Z M 28.667969 46.5625 C 29.667969 46.25 30.726562 46.8125 31.042969 47.800781 C 31.359375 48.800781 30.792969 49.855469 29.800781 50.167969 L 28.566406 50.558594 C 29.296875 51.25 29.753906 52.230469 29.753906 53.320312 C 29.753906 55.4375 28.035156 57.148438 25.910156 57.148438 C 23.789062 57.148438 22.070312 55.4375 22.070312 53.320312 C 22.070312 53.0625 22.097656 52.804688 22.144531 52.5625 L 19.34375 53.441406 C 18.339844 53.753906 17.285156 53.191406 16.96875 52.203125 C 16.652344 51.203125 17.21875 50.152344 18.210938 49.835938 Z M 61.789062 49.835938 C 62.789062 50.152344 63.347656 51.203125 63.03125 52.203125 C 62.714844 53.199219 61.660156 53.753906 60.65625 53.441406 L 58.671875 52.820312 C 58.691406 52.988281 58.707031 53.15625 58.707031 53.332031 C 58.707031 55.445312 56.992188 57.15625 54.867188 57.15625 C 52.742188 57.15625 51.027344 55.445312 51.027344 53.332031 C 51.027344 52.332031 51.40625 51.433594 52.027344 50.75 L 50.199219 50.179688 C 49.199219 49.863281 48.640625 48.808594 48.957031 47.8125 C 49.273438 46.8125 50.332031 46.257812 51.332031 46.574219 Z M 33.410156 87.742188 C 32.265625 87.449219 31.144531 87.070312 30.039062 86.617188 C 29.773438 87.773438 29.410156 88.882812 28.957031 89.945312 C 28.390625 91.285156 27.675781 92.570312 26.820312 93.78125 C 27.769531 94.824219 28.84375 95.722656 30.003906 96.46875 C 33.140625 98.496094 36.925781 99.4375 40.644531 99.355469 C 44.347656 99.261719 47.964844 98.132812 50.785156 96.007812 C 51.535156 95.445312 52.230469 94.804688 52.855469 94.09375 C 53.039062 93.871094 53.214844 93.632812 53.382812 93.402344 C 52.722656 92.253906 52.167969 91.054688 51.710938 89.777344 C 51.359375 88.808594 51.074219 87.808594 50.839844 86.78125 C 47.222656 88.078125 43.558594 88.714844 39.96875 88.660156 C 37.75 88.621094 35.550781 88.328125 33.410156 87.742188 Z M 29.667969 82.503906 C 30.847656 83.121094 32.042969 83.621094 33.277344 84.019531 L 33.324219 84.039062 C 35.589844 84.730469 37.953125 85.074219 40.328125 85.074219 C 44.140625 85.074219 48 84.214844 51.582031 82.585938 C 55.183594 80.960938 58.503906 78.566406 61.222656 75.503906 C 65.609375 70.570312 68.476562 63.886719 68.476562 55.84375 L 68.476562 39.445312 L 68.488281 39.445312 C 68.449219 38.320312 68.28125 37.285156 67.976562 36.339844 C 67.679688 35.433594 67.253906 34.640625 66.675781 33.964844 C 64.496094 31.414062 62.429688 31.515625 59.476562 31.671875 C 59.210938 31.683594 58.949219 31.699219 58.570312 31.71875 C 46.898438 32.226562 39.253906 32.21875 33.054688 31.683594 C 27.339844 31.171875 22.851562 30.238281 17.617188 28.863281 C 17.125 30.019531 16.550781 31.144531 15.882812 32.246094 C 15.03125 33.652344 14.035156 34.992188 12.90625 36.265625 L 12.5625 54.523438 C 12.449219 60.410156 13.277344 64.589844 15.269531 68.269531 C 17.292969 72.011719 20.550781 75.359375 25.242188 79.507812 C 26.488281 80.609375 27.8125 81.53125 29.195312 82.289062 C 29.363281 82.335938 29.53125 82.410156 29.667969 82.503906 Z M 29.667969 82.503906 "/>
</g>
</svg>
