<?xml version="1.0" encoding="UTF-8"?>
<svg xmlns="http://www.w3.org/2000/svg" xmlns:xlink="http://www.w3.org/1999/xlink" width="80px" height="80px" viewBox="0 0 80 44" version="1.1">
<g id="surface1">
<path style=" stroke:none;fill-rule:evenodd;fill:rgb(0%,0%,0%);fill-opacity:1;" d="M 5.34375 0 L 74.65625 0 C 77.449219 0 79.730469 2.238281 79.730469 4.976562 L 79.730469 39.015625 C 79.730469 41.753906 77.449219 43.992188 74.65625 43.992188 L 5.34375 43.992188 C 2.550781 44 0.269531 41.761719 0.269531 39.023438 L 0.269531 4.976562 C 0.269531 2.238281 2.550781 0 5.34375 0 Z M 58.132812 9.503906 L 69.8125 9.503906 L 69.8125 14.488281 L 65.148438 14.488281 L 65.148438 19.253906 L 69.507812 19.253906 L 69.507812 23.992188 L 65.148438 23.992188 L 65.148438 29.480469 L 70.289062 29.480469 L 70.289062 34.464844 L 58.132812 34.464844 Z M 25.101562 17.074219 L 18.601562 17.074219 L 18.601562 15.230469 C 18.601562 14.367188 18.519531 13.816406 18.351562 13.574219 C 18.1875 13.339844 17.910156 13.21875 17.527344 13.21875 C 17.109375 13.21875 16.792969 13.378906 16.578125 13.699219 C 16.363281 14.019531 16.253906 14.492188 16.253906 15.140625 C 16.253906 15.96875 16.378906 16.597656 16.625 17.015625 C 16.863281 17.433594 17.523438 17.941406 18.601562 18.542969 C 21.707031 20.261719 23.664062 21.675781 24.46875 22.78125 C 25.277344 23.875 25.683594 25.652344 25.683594 28.09375 C 25.683594 29.867188 25.457031 31.179688 25.011719 32.03125 C 24.5625 32.875 23.699219 33.578125 22.410156 34.140625 C 21.128906 34.710938 19.636719 34.996094 17.929688 34.996094 C 16.054688 34.996094 14.464844 34.667969 13.136719 34.007812 C 11.820312 33.347656 10.953125 32.511719 10.539062 31.496094 C 10.132812 30.476562 9.925781 29.03125 9.925781 27.160156 L 9.925781 25.523438 L 16.421875 25.523438 L 16.421875 28.5625 C 16.421875 29.5 16.511719 30.097656 16.695312 30.367188 C 16.875 30.636719 17.199219 30.769531 17.664062 30.769531 C 18.128906 30.769531 18.472656 30.597656 18.707031 30.261719 C 18.933594 29.925781 19.046875 29.417969 19.046875 28.757812 C 19.046875 27.292969 18.835938 26.332031 18.402344 25.878906 C 17.957031 25.429688 16.863281 24.667969 15.128906 23.609375 C 13.398438 22.546875 12.246094 21.765625 11.683594 21.285156 C 11.121094 20.800781 10.648438 20.128906 10.28125 19.28125 C 9.910156 18.429688 9.722656 17.339844 9.722656 16.015625 C 9.722656 14.105469 9.980469 12.707031 10.511719 11.824219 C 11.042969 10.941406 11.882812 10.25 13.058594 9.75 C 14.238281 9.25 15.648438 9.003906 17.308594 9.003906 C 19.125 9.003906 20.664062 9.277344 21.953125 9.820312 C 23.226562 10.367188 24.074219 11.050781 24.488281 11.882812 C 24.902344 12.707031 25.113281 14.113281 25.113281 16.089844 L 25.113281 17.074219 Z M 39.980469 9.503906 L 43.984375 34.464844 L 36.832031 34.464844 L 36.449219 29.980469 L 33.929688 29.980469 L 33.546875 34.464844 L 26.304688 34.464844 L 29.855469 9.503906 Z M 36.261719 25.5625 C 35.925781 22.734375 35.578125 19.230469 35.203125 15.050781 C 34.511719 19.851562 34.070312 23.351562 33.882812 25.5625 Z M 52.195312 9.503906 L 52.195312 29.480469 L 56.417969 29.480469 L 56.417969 34.464844 L 45.1875 34.464844 L 45.1875 9.503906 Z M 52.195312 9.503906 "/>
</g>
</svg>
