<?xml version="1.0" encoding="UTF-8"?>
<svg xmlns="http://www.w3.org/2000/svg" xmlns:xlink="http://www.w3.org/1999/xlink" width="80px" height="80px" viewBox="0 0 80 92" version="1.1">
<g id="surface1">
<path style=" stroke:none;fill-rule:nonzero;fill:rgb(0%,0%,0%);fill-opacity:1;" d="M 62.542969 67.921875 C 60.292969 61.820312 56.726562 57.320312 52.519531 54.414062 C 49.671875 52.449219 46.546875 51.210938 43.363281 50.695312 C 40.167969 50.183594 36.886719 50.390625 33.742188 51.316406 C 26.847656 53.347656 20.625 58.878906 17.285156 67.921875 Z M 15.5625 20.351562 L 64.265625 20.351562 C 64.527344 18.167969 65.136719 10.09375 65.109375 7.640625 L 14.714844 7.640625 C 14.6875 10.097656 15.296875 18.167969 15.5625 20.351562 Z M 0.6875 84.269531 L 7.90625 84.269531 C 7.714844 63.667969 17.09375 50.882812 28.699219 45.972656 C 17.085938 41.0625 7.703125 28.265625 7.90625 7.640625 L 0.6875 7.640625 C 0.308594 7.640625 0 7.296875 0 6.875 L 0 0.765625 C 0 0.34375 0.308594 0 0.6875 0 L 79.136719 0 C 79.511719 0 79.820312 0.34375 79.820312 0.765625 L 79.820312 6.871094 C 79.820312 7.292969 79.511719 7.636719 79.136719 7.636719 L 71.914062 7.636719 C 72.082031 25 65.4375 36.835938 56.40625 43.074219 C 54.753906 44.210938 52.976562 45.191406 51.128906 45.972656 C 52.972656 46.753906 54.757812 47.730469 56.40625 48.871094 C 65.425781 55.105469 72.070312 66.929688 71.910156 84.265625 L 79.136719 84.269531 C 79.511719 84.269531 79.820312 84.613281 79.820312 85.035156 L 79.820312 91.140625 C 79.820312 91.5625 79.511719 91.910156 79.136719 91.910156 L 0.6875 91.910156 C 0.308594 91.910156 0 91.5625 0 91.140625 L 0 85.035156 C 0 84.617188 0.308594 84.269531 0.6875 84.269531 Z M 0.6875 84.269531 "/>
</g>
</svg>
