<?xml version="1.0" encoding="UTF-8"?>
<svg xmlns="http://www.w3.org/2000/svg" xmlns:xlink="http://www.w3.org/1999/xlink" width="80px" height="80px" viewBox="0 0 80 91" version="1.1">
<g id="surface1">
<path style=" stroke:none;fill-rule:evenodd;fill:rgb(0%,0%,0%);fill-opacity:1;" d="M 30.640625 54.820312 C 30.257812 55.417969 30.042969 56.039062 29.960938 56.667969 L 39.613281 56.667969 C 42.207031 56.667969 44.335938 58.792969 44.335938 61.386719 L 44.335938 66.105469 L 44.285156 66.105469 L 44.285156 84.554688 C 44.285156 87.144531 42.15625 89.273438 39.558594 89.273438 L 34.835938 89.273438 L 34.835938 67.464844 C 34.835938 65.394531 34.058594 66.113281 31.714844 66.113281 L 21.164062 66.113281 L 21.164062 66.074219 L 15.105469 66.074219 C 11.203125 66.074219 6.804688 62.691406 8 58.976562 L 11.03125 49.589844 L 22.789062 30.617188 C 24.882812 27.242188 29.355469 26.1875 32.734375 28.277344 L 35.773438 30.152344 C 38.902344 32.089844 39.574219 33.972656 39.597656 35.929688 L 43.664062 40.125 L 45.800781 31.222656 C 45.898438 30.824219 46.042969 30.457031 46.246094 30.125 C 45.195312 30.5 44.070312 30.707031 42.894531 30.707031 C 37.4375 30.707031 33.007812 26.285156 33.007812 20.832031 C 33.007812 15.382812 37.4375 10.957031 42.894531 10.957031 C 48.351562 10.957031 52.78125 15.382812 52.78125 20.832031 C 52.78125 23.734375 51.523438 26.34375 49.535156 28.152344 C 49.898438 28.136719 50.265625 28.167969 50.636719 28.253906 C 52.789062 28.765625 54.121094 30.929688 53.609375 33.078125 L 50.023438 47.996094 L 77.257812 47.996094 C 77.484375 47.996094 77.679688 48.1875 77.679688 48.417969 L 77.679688 54.429688 C 77.679688 54.65625 77.484375 54.851562 77.257812 54.851562 L 75.363281 54.851562 L 75.363281 90.316406 C 75.363281 90.617188 75.113281 90.867188 74.808594 90.867188 L 70.046875 90.867188 C 69.742188 90.867188 69.492188 90.617188 69.492188 90.316406 L 69.492188 54.851562 L 37.140625 54.851562 C 36.914062 54.851562 36.71875 54.65625 36.71875 54.429688 L 36.71875 48.425781 C 36.71875 48.195312 36.914062 48.003906 37.140625 48.003906 L 40.121094 48.003906 L 36.921875 44.695312 Z M 37.203125 1.21875 C 37.328125 0.914062 37.675781 0.765625 37.976562 0.890625 C 38.28125 1.019531 38.429688 1.363281 38.304688 1.667969 L 37.195312 4.363281 L 38.652344 3.933594 C 38.96875 3.839844 39.300781 4.023438 39.390625 4.339844 C 39.433594 4.488281 39.417969 4.636719 39.359375 4.761719 L 37.753906 8.136719 C 37.617188 8.433594 37.261719 8.566406 36.957031 8.425781 C 36.660156 8.285156 36.527344 7.929688 36.667969 7.628906 L 37.703125 5.457031 L 36.335938 5.863281 C 36.210938 5.898438 36.070312 5.890625 35.945312 5.839844 C 35.640625 5.722656 35.492188 5.375 35.617188 5.066406 Z M 56.765625 5.152344 C 57.078125 5.042969 57.417969 5.210938 57.527344 5.523438 C 57.640625 5.832031 57.46875 6.171875 57.160156 6.285156 L 54.40625 7.25 L 55.695312 8.046875 C 55.976562 8.21875 56.0625 8.585938 55.886719 8.867188 C 55.804688 9 55.671875 9.089844 55.53125 9.132812 L 51.945312 10.183594 C 51.628906 10.273438 51.296875 10.09375 51.207031 9.777344 C 51.117188 9.460938 51.296875 9.128906 51.613281 9.039062 L 53.921875 8.367188 L 52.707031 7.621094 C 52.597656 7.554688 52.507812 7.441406 52.457031 7.308594 C 52.34375 7 52.515625 6.660156 52.824219 6.550781 Z M 45.964844 0.441406 C 46.117188 0.144531 46.472656 0.0351562 46.769531 0.191406 C 47.058594 0.347656 47.175781 0.699219 47.019531 0.996094 L 45.667969 3.582031 L 47.152344 3.285156 C 47.480469 3.21875 47.789062 3.433594 47.855469 3.757812 C 47.886719 3.914062 47.855469 4.066406 47.773438 4.195312 L 45.875 7.390625 C 45.703125 7.671875 45.34375 7.769531 45.054688 7.597656 C 44.773438 7.429688 44.675781 7.066406 44.847656 6.777344 L 46.074219 4.71875 L 44.675781 5 C 44.550781 5.019531 44.410156 5.007812 44.285156 4.941406 C 43.988281 4.785156 43.878906 4.429688 44.035156 4.132812 Z M 54.949219 46.527344 C 53.800781 46.527344 52.878906 45.601562 52.878906 44.457031 C 52.878906 43.3125 53.800781 42.390625 54.949219 42.390625 L 68.953125 42.390625 L 76.082031 27.894531 C 76.582031 26.875 77.820312 26.445312 78.839844 26.949219 C 79.859375 27.449219 80.289062 28.683594 79.785156 29.703125 L 72.167969 45.195312 C 71.875 45.972656 71.121094 46.527344 70.230469 46.527344 Z M 2.730469 84.863281 C 2.765625 84.574219 2.898438 84.296875 3.121094 84.074219 C 4.753906 82.425781 6.824219 81.089844 9.183594 80.167969 C 10.832031 79.523438 12.621094 79.089844 14.507812 78.898438 L 14.152344 73.277344 L 2.476562 73.277344 C 1.140625 73.277344 0.0429688 72.183594 0.0429688 70.847656 C 0.0429688 60.800781 2.410156 53.246094 0.0429688 41.808594 C -0.65625 38.417969 6.34375 37.921875 6.34375 41.984375 L 6.34375 67.730469 L 30.582031 67.730469 C 31.921875 67.730469 33.007812 69.511719 33.007812 70.847656 L 33.007812 72.738281 C 33.007812 73.03125 32.765625 73.269531 32.46875 73.269531 L 18.472656 73.269531 L 17.96875 78.832031 C 19.957031 78.964844 21.867188 79.371094 23.617188 80.011719 C 25.871094 80.832031 27.875 82.035156 29.503906 83.527344 C 29.894531 83.882812 30.035156 84.414062 29.910156 84.886719 C 30.539062 85.359375 30.945312 86.105469 30.945312 86.953125 C 30.945312 88.378906 29.792969 89.53125 28.363281 89.53125 C 26.9375 89.53125 25.785156 88.378906 25.785156 86.953125 C 25.785156 86.105469 26.199219 85.34375 26.835938 84.878906 C 25.628906 83.941406 24.222656 83.164062 22.679688 82.605469 C 21.023438 82 19.1875 81.636719 17.257812 81.5625 L 16.976562 84.355469 L 16.960938 84.472656 C 18.050781 84.777344 18.855469 85.773438 18.855469 86.960938 C 18.855469 88.386719 17.703125 89.539062 16.273438 89.539062 C 14.847656 89.539062 13.695312 88.386719 13.695312 86.960938 C 13.695312 85.789062 14.484375 84.789062 15.566406 84.480469 L 15.558594 84.347656 L 15.359375 81.59375 C 13.515625 81.71875 11.773438 82.109375 10.191406 82.722656 L 10.183594 82.722656 C 8.636719 83.320312 7.238281 84.140625 6.054688 85.113281 C 6.527344 85.582031 6.824219 86.238281 6.824219 86.953125 C 6.824219 88.378906 5.671875 89.53125 4.246094 89.53125 C 2.816406 89.53125 1.664062 88.378906 1.664062 86.953125 C 1.65625 86.097656 2.078125 85.335938 2.730469 84.863281 Z M 2.730469 84.863281 "/>
</g>
</svg>
