<?xml version="1.0" encoding="UTF-8"?>
<svg xmlns="http://www.w3.org/2000/svg" xmlns:xlink="http://www.w3.org/1999/xlink" width="80px" height="80px" viewBox="0 0 80 76" version="1.1">
<g id="surface1">
<path style=" stroke:none;fill-rule:evenodd;fill:rgb(0%,0%,0%);fill-opacity:1;" d="M 5.011719 0 L 74.980469 0 C 76.3125 0 77.53125 0.546875 78.414062 1.417969 L 78.417969 1.425781 L 78.425781 1.433594 L 78.433594 1.4375 C 79.316406 2.320312 79.859375 3.519531 79.859375 4.835938 L 79.859375 71.1875 C 79.859375 72.519531 79.308594 73.726562 78.425781 74.597656 C 77.542969 75.472656 76.324219 76.019531 74.980469 76.019531 L 5.011719 76.019531 C 3.683594 76.019531 2.464844 75.480469 1.574219 74.597656 L 1.566406 74.59375 L 1.5625 74.585938 L 1.554688 74.582031 C 0.671875 73.699219 0.128906 72.5 0.128906 71.183594 L 0.128906 4.824219 C 0.140625 3.496094 0.683594 2.285156 1.566406 1.414062 C 1.621094 1.363281 1.671875 1.3125 1.730469 1.265625 C 2.597656 0.480469 3.753906 0 5.011719 0 Z M 11.550781 22.335938 L 67.304688 22.335938 L 67.304688 43.957031 L 11.550781 43.957031 Z M 28.738281 37.664062 L 24.566406 37.664062 L 23.96875 39.890625 L 20.207031 39.890625 L 24.695312 26.410156 L 28.722656 26.410156 L 33.195312 39.890625 L 29.335938 39.890625 Z M 27.960938 34.75 L 26.65625 29.90625 L 25.351562 34.75 Z M 34.992188 26.410156 L 40.46875 26.410156 C 41.542969 26.410156 42.417969 26.578125 43.082031 26.90625 C 43.742188 27.238281 44.292969 27.714844 44.730469 28.332031 C 45.164062 28.953125 45.476562 29.675781 45.671875 30.488281 C 45.863281 31.3125 45.960938 32.179688 45.960938 33.097656 C 45.960938 34.539062 45.820312 35.65625 45.527344 36.445312 C 45.242188 37.242188 44.839844 37.902344 44.320312 38.441406 C 43.800781 38.984375 43.25 39.335938 42.660156 39.515625 C 41.855469 39.761719 41.121094 39.882812 40.46875 39.882812 L 34.992188 39.882812 Z M 38.671875 29.457031 L 38.671875 36.816406 L 39.570312 36.816406 C 40.34375 36.816406 40.894531 36.722656 41.21875 36.527344 C 41.542969 36.335938 41.796875 35.996094 41.984375 35.519531 C 42.171875 35.039062 42.265625 34.261719 42.265625 33.183594 C 42.265625 31.753906 42.054688 30.777344 41.648438 30.253906 C 41.234375 29.726562 40.550781 29.460938 39.589844 29.460938 L 38.671875 29.460938 Z M 47.84375 35.429688 L 51.339844 35.179688 C 51.417969 35.820312 51.566406 36.308594 51.800781 36.644531 C 52.183594 37.183594 52.722656 37.460938 53.429688 37.460938 C 53.953125 37.460938 54.355469 37.324219 54.640625 37.042969 C 54.929688 36.765625 55.070312 36.4375 55.070312 36.074219 C 55.070312 35.726562 54.941406 35.410156 54.667969 35.132812 C 54.402344 34.859375 53.773438 34.601562 52.785156 34.351562 C 51.171875 33.945312 50.023438 33.398438 49.335938 32.71875 C 48.640625 32.042969 48.296875 31.175781 48.296875 30.125 C 48.296875 29.4375 48.472656 28.78125 48.828125 28.164062 C 49.1875 27.546875 49.71875 27.066406 50.433594 26.710938 C 51.144531 26.359375 52.117188 26.1875 53.363281 26.1875 C 54.890625 26.1875 56.050781 26.507812 56.847656 27.148438 C 57.644531 27.792969 58.121094 28.808594 58.277344 30.207031 L 54.8125 30.4375 C 54.71875 29.828125 54.527344 29.378906 54.234375 29.101562 C 53.933594 28.824219 53.527344 28.683594 53.007812 28.683594 C 52.578125 28.683594 52.253906 28.789062 52.039062 28.992188 C 51.828125 29.199219 51.714844 29.449219 51.714844 29.746094 C 51.714844 29.957031 51.808594 30.148438 51.984375 30.324219 C 52.152344 30.503906 52.558594 30.664062 53.207031 30.816406 C 54.816406 31.210938 55.972656 31.609375 56.660156 32.011719 C 57.355469 32.417969 57.867188 32.910156 58.179688 33.503906 C 58.496094 34.09375 58.652344 34.761719 58.652344 35.5 C 58.652344 36.363281 58.4375 37.160156 58.015625 37.890625 C 57.59375 38.617188 57.003906 39.175781 56.246094 39.546875 C 55.484375 39.925781 54.53125 40.113281 53.378906 40.113281 C 51.351562 40.113281 49.945312 39.671875 49.167969 38.789062 C 48.386719 37.902344 47.949219 36.785156 47.84375 35.429688 Z M 11.910156 54.214844 C 11.070312 54.214844 10.390625 53.539062 10.390625 52.710938 C 10.390625 51.882812 11.070312 51.207031 11.910156 51.207031 L 35.09375 51.207031 C 35.933594 51.207031 36.613281 51.882812 36.613281 52.710938 C 36.613281 53.539062 35.933594 54.214844 35.09375 54.214844 Z M 41.746094 54.214844 C 40.902344 54.214844 40.21875 53.539062 40.21875 52.707031 C 40.21875 51.871094 40.902344 51.195312 41.746094 51.195312 L 66.753906 51.195312 C 67.597656 51.195312 68.28125 51.871094 68.28125 52.707031 C 68.28125 53.539062 67.597656 54.214844 66.753906 54.214844 Z M 41.746094 62.953125 C 40.902344 62.953125 40.21875 62.277344 40.21875 61.441406 C 40.21875 60.605469 40.902344 59.933594 41.746094 59.933594 L 66.753906 59.933594 C 67.597656 59.933594 68.28125 60.605469 68.28125 61.441406 C 68.28125 62.277344 67.597656 62.953125 66.753906 62.953125 Z M 12.640625 62.945312 C 11.804688 62.945312 11.125 62.269531 11.125 61.441406 C 11.125 60.613281 11.804688 59.9375 12.640625 59.9375 L 35.828125 59.9375 C 36.664062 59.9375 37.347656 60.613281 37.347656 61.441406 C 37.347656 62.269531 36.664062 62.945312 35.828125 62.945312 Z M 32.65625 6.230469 C 34.40625 6.230469 35.820312 7.636719 35.820312 9.367188 C 35.820312 11.09375 34.402344 12.5 32.65625 12.5 C 30.910156 12.5 29.488281 11.09375 29.488281 9.367188 C 29.488281 7.636719 30.910156 6.230469 32.65625 6.230469 Z M 10.515625 6.230469 C 12.265625 6.230469 13.679688 7.636719 13.679688 9.367188 C 13.679688 11.09375 12.257812 12.5 10.515625 12.5 C 8.761719 12.5 7.347656 11.09375 7.347656 9.367188 C 7.347656 7.636719 8.761719 6.230469 10.515625 6.230469 Z M 21.582031 6.230469 C 23.332031 6.230469 24.746094 7.636719 24.746094 9.367188 C 24.746094 11.09375 23.328125 12.5 21.582031 12.5 C 19.832031 12.5 18.414062 11.09375 18.414062 9.367188 C 18.414062 7.636719 19.835938 6.230469 21.582031 6.230469 Z M 75.453125 17.300781 C 75.300781 17.328125 75.144531 17.339844 74.988281 17.339844 L 5.011719 17.339844 C 4.851562 17.339844 4.695312 17.328125 4.546875 17.300781 L 4.546875 71.175781 C 4.546875 71.304688 4.597656 71.417969 4.675781 71.503906 L 4.683594 71.507812 C 4.765625 71.59375 4.875 71.636719 5.011719 71.636719 L 74.980469 71.636719 C 75.105469 71.636719 75.222656 71.585938 75.3125 71.496094 C 75.394531 71.414062 75.453125 71.296875 75.453125 71.167969 Z M 75.453125 17.300781 "/>
</g>
</svg>
